<?xml version="1.0" encoding="UTF-8" standalone="no"?>
<!-- Created with Inkscape (http://www.inkscape.org/) -->

<svg
   version="1.1"
   id="svg1"
   width="3260.7305"
   height="2444.2153"
   viewBox="0 0 3260.7305 2444.2153"
   sodipodi:docname="37 sin tiÌtulo_20250913180609.png"
   inkscape:export-filename="tarjeta 1_descubre nuestras clases.png"
   inkscape:export-xdpi="250"
   inkscape:export-ydpi="250"
   xmlns:inkscape="http://www.inkscape.org/namespaces/inkscape"
   xmlns:sodipodi="http://sodipodi.sourceforge.net/DTD/sodipodi-0.dtd"
   xmlns="http://www.w3.org/2000/svg"
   xmlns:svg="http://www.w3.org/2000/svg">
  <defs
     id="defs1" />
  <sodipodi:namedview
     id="namedview1"
     pagecolor="#ffffff"
     bordercolor="#999999"
     borderopacity="1"
     inkscape:showpageshadow="2"
     inkscape:pageopacity="0"
     inkscape:pagecheckerboard="0"
     inkscape:deskcolor="#d1d1d1">
    <inkscape:page
       x="0"
       y="0"
       width="3260.7305"
       height="2444.2153"
       id="page2"
       margin="0"
       bleed="0" />
  </sodipodi:namedview>
  <g
     inkscape:groupmode="layer"
     inkscape:label="Image"
     id="g1"
     transform="translate(-5.8295735,-5.8295737)">
    <rect
       style="fill:#fffdf8;fill-opacity:0.992157;stroke:#fffdf8;stroke-opacity:1"
       id="rect30"
       width="3259.7305"
       height="2443.2153"
       x="6.3295736"
       y="6.3295736" />
    <path
       style="fill:#000000;fill-opacity:1"
       d="m 1067.1404,622.15429 c -8.525,-2.62734 -17.75,-5.79892 -20.5,-7.04794 -2.75,-1.24903 -6.1976,-2.43227 -7.6614,-2.62943 -5.8564,-0.78881 -44.46267,-14.53506 -53.57477,-19.07596 -16.4465,-8.19594 -12.9444,-9.55386 9.841,-3.8158 7.70167,1.93952 17.91637,4.82957 22.69917,6.42234 4.7828,1.59276 12.971,4.07471 18.196,5.51544 5.225,1.44072 12.9042,3.92416 17.065,5.51875 7.9262,3.03769 20.4839,5.80154 21.5438,4.74162 0.3406,-0.34057 -0.341,-1.83996 -1.5146,-3.33197 -2.7998,-3.55927 -6.4448,-15.64104 -5.6099,-18.59426 2.236,-7.90885 2.0898,-7.79832 10.316,-7.79832 4.1567,0 9.0528,0.54065 10.8802,1.20144 4.4749,1.61814 25.9493,-0.40264 28.2003,-2.65371 1.7155,-1.71547 1.9174,-6.1544 0.6959,-15.29773 -0.7182,-5.37564 -0.6146,-6.25 0.7407,-6.25 3.4885,0 15.0727,22.20418 14.8413,28.44746 -0.06,1.6211 -0.9437,3.78194 -1.9636,4.80187 -2.6709,2.67088 -12.2508,3.74296 -23.8699,2.67124 -19.751,-1.82179 -29.3252,-2.23251 -29.3252,-1.258 0,1.06691 6.8441,14.62982 11.8981,23.57844 6.4382,11.39955 1.6396,12.41687 -22.8981,4.85452 z"
       id="path14" />
    <path
       style="fill:#000000;fill-opacity:1"
       d="m 1080.463,682.40569 c -5.1926,-1.11371 -4.7583,-4.74601 0.6579,-5.50111 3.9208,-0.54664 8.1806,-10.27455 8.7921,-20.07829 0.4087,-6.55204 0.2301,-7.82926 -1.1699,-8.36649 -3.4392,-1.31973 -14.4923,7.77922 -22.3553,18.40295 -6.5568,8.85886 -10.3514,11.08065 -16.0226,9.3815 -6.0345,-1.80798 -8.5236,-5.16803 -9.0317,-12.19206 -0.5066,-7.00381 0.7258,-9.47333 6.993,-14.01328 3.9636,-2.8712 8.8139,-3.99119 8.8139,-2.03521 0,0.51972 -2.0169,2.83536 -4.4821,5.14586 -4.8871,4.58064 -6.319,8.67195 -4.609,13.16961 0.8093,2.12859 1.6972,2.73959 3.9812,2.73959 2.3709,0 3.5863,-0.91883 6.2829,-4.75 1.8389,-2.6125 4.2386,-6.51267 5.3326,-8.66705 2.8746,-5.66032 10.1234,-13.35303 14.8592,-15.76905 5.4173,-2.76369 16.0058,-3.05032 19.7355,-0.53425 2.9177,1.96834 7.8997,10.45003 7.8997,13.44913 0,2.94318 -3.8572,13.56494 -5.2353,14.41665 -0.6629,0.40968 -2.3436,3.10494 -3.735,5.98948 -1.3913,2.88454 -3.6653,6.07097 -5.0531,7.08096 -2.6619,1.93709 -8.0039,2.91393 -11.654,2.13106 z"
       id="path13" />
    <path
       style="fill:#000000;fill-opacity:1"
       d="m 1021.8377,708.30876 c -2.619,-4.66837 -1.0863,-10.86328 2.9377,-11.87323 2.228,-0.5592 3.2052,-0.11999 5.5353,2.48785 2.7754,3.10615 3.8658,8.13538 1.764,8.13538 -0.5862,0 -1.8796,-0.43552 -2.8742,-0.96782 -1.3637,-0.72985 -2.2462,-0.48397 -3.5892,1 -1.8774,2.07448 -3.076,2.4613 -3.7736,1.21782 z"
       id="path12" />
    <path
       style="fill:#000000;fill-opacity:1"
       d="m 1052.2185,711.88771 c -1.8164,-2.2953 -2.1705,-3.45891 -1.4163,-4.65451 1.1213,-1.77776 7.2669,-4.30117 14.8382,-6.09273 2.75,-0.65071 7.9865,-2.55342 11.6367,-4.22823 5.3659,-2.46203 7.0288,-2.83528 8.6843,-1.9493 1.1261,0.6027 3.5396,1.10271 5.3633,1.11113 1.8236,0.008 3.9907,0.46906 4.8157,1.02364 3.7088,2.49313 -12.5515,11.14386 -28.7901,15.31676 -5.6595,1.45436 -10.8345,2.61939 -11.5,2.58896 -0.6654,-0.0304 -2.2998,-1.4325 -3.6318,-3.11572 z"
       id="path11" />
    <path
       style="fill:#000000;fill-opacity:1"
       d="m 1249.6404,735.85883 c -1.1,-0.62651 -5.375,-3.69486 -9.5,-6.81856 -10.2209,-7.73992 -30.5058,-20.84886 -36,-23.26479 -5.8621,-2.5777 -29.3178,-17.3054 -31.6299,-19.8603 -2.1087,-2.33006 -1.1231,-3.30498 4.3861,-4.33851 2.6927,-0.50514 4.3439,-0.0408 8.0649,2.26805 2.5734,1.59678 9.4039,5.50665 15.1789,8.6886 5.775,3.18195 12.6944,7.09365 15.3764,8.69266 4.6047,2.74532 4.8454,2.78892 4.3207,0.78265 -0.9577,-3.66253 -9.9558,-17.8363 -15.7365,-24.78815 -9.5978,-11.54229 -14.2341,-21.63861 -10.8866,-23.70747 1.6545,-1.02253 5.6137,3.27725 10.6237,11.53771 2.5046,4.12942 7.7538,11.88112 11.665,17.22599 6.6206,9.04755 7.4225,9.78476 11.6242,10.68648 2.4822,0.53269 8.3381,2.38985 13.0131,4.12702 4.675,1.73717 9.9281,3.38598 11.6737,3.66401 3.126,0.49795 3.1843,0.43282 3.8863,-4.34497 0.3919,-2.66777 1.1407,-5.97549 1.664,-7.35049 l 0.9515,-2.5 3.1622,3.63369 c 3.5267,4.05241 12.5447,21.56838 12.9204,25.0957 0.2006,1.88248 -0.3014,2.32326 -2.9363,2.57862 -1.7587,0.17043 -5.0809,-0.61124 -7.4379,-1.75 -2.3427,-1.13191 -4.8329,-2.05801 -5.5336,-2.05801 -1.6147,0 -15.6499,-6.59646 -20.5804,-9.6727 -4.5965,-2.86785 -4.7699,-2.86966 -4.7699,-0.0498 0,2.70945 0.839,3.95595 12.2285,18.16732 8.2182,10.25443 10.4667,14.59643 7.5215,14.52478 -0.6875,-0.0167 -2.15,-0.54301 -3.25,-1.16952 z"
       id="path10" />
    <path
       style="fill:#000000;fill-opacity:1"
       d="m 1212.8384,776.67202 c -7.2646,-2.70051 -11.5282,-6.55945 -15.8026,-14.30268 -3.0996,-5.61524 -3.929,-8.04047 -3.4298,-10.02943 0.9801,-3.9053 4.288,-7.64036 7.8643,-8.88 2.7192,-0.94255 3.1701,-1.58021 3.1701,-4.4831 0,-2.65823 0.5582,-3.65254 2.6022,-4.63486 2.1999,-1.0573 5.2346,-1.88959 8.054,-2.20888 0.3609,-0.0409 0.9752,-2.43681 1.3651,-5.32431 0.7499,-5.55295 1.9921,-8.75 3.3999,-8.75 1.7062,0 3.8467,6.68007 4.4847,13.99589 0.49,5.61749 1.2941,8.46352 3.2091,11.35732 6.4232,9.70605 9.5366,25.35234 5.7903,29.09867 -4.6277,4.62764 -14.2508,6.56152 -20.7073,4.16138 z m 6.9348,-9.61326 c 3.8432,0 5.9844,-16.08037 2.236,-16.79146 -0.8972,-0.1702 -3.3667,0.86826 -5.4878,2.30769 -2.9219,1.9828 -4.6137,2.47509 -6.9803,2.03112 -8.4898,-1.59269 -5.5373,9.79819 3.2186,12.41745 1.5844,0.47396 3.48,0.67577 4.2125,0.44847 0.7325,-0.2273 1.9929,-0.41327 2.801,-0.41327 z"
       id="path9" />
    <path
       style="fill:#000000;fill-opacity:1"
       d="m 1085.1064,782.18845 c -4.9206,-1.03679 -6.1463,-1.98634 -5.4393,-4.21385 0.4226,-1.33154 0.1301,-1.91584 -0.9593,-1.91584 -0.8621,0 -1.5674,-0.62158 -1.5674,-1.38129 0,-1.74271 7.2282,-3.61871 13.9428,-3.61871 3.6463,0 5.0572,-0.38708 5.0572,-1.38747 0,-0.76311 -4.4401,-5.28338 -9.8668,-10.04505 -14.7435,-12.93669 -16.4398,-17.83761 -7.7565,-22.41016 2.4468,-1.28847 5.3584,-3.31347 6.4702,-4.5 2.0065,-2.1415 2.0074,-2.19765 0.1199,-7.65732 -2.3048,-6.66658 -2.479,-10 -0.5226,-10 0.7944,0 2.5822,1.0125 3.9729,2.25 3.3974,3.02293 9.5829,13.58585 9.5829,16.36445 0,3.29511 -4.3967,7.93936 -9.5048,10.04001 -2.4682,1.01505 -4.4894,2.11776 -4.4915,2.45048 -0.01,0.82629 9.9099,9.75417 14.6451,13.18709 12.7013,9.20811 14.3512,10.90532 14.3512,14.76235 0,2.0354 -0.5625,4.16183 -1.25,4.7254 -3.2166,2.63673 -20.1294,4.75205 -26.784,3.34991 z"
       id="path8" />
    <path
       style="fill:#000000;fill-opacity:1"
       d="m 1181.8762,817.79144 c -10.5075,-4.11096 -14.7125,-9.24441 -14.7302,-17.98268 -0.01,-2.7079 2.4573,-6.07096 5.0879,-6.94784 1.1242,-0.37472 1.1232,-1.11542 -0.01,-4.5361 -2.6185,-7.94732 0.8925,-13.26606 8.7615,-13.26606 3.575,0 5.3195,-0.52425 6.655,-2 3.4934,-3.86014 6.7511,-1.87602 7.117,4.33458 0.1457,2.47448 1.361,6.67398 2.7006,9.33223 1.3396,2.65826 3.4964,8.99412 4.7928,14.07969 2.2233,8.72172 2.2636,9.40278 0.7098,12 -3.8723,6.47293 -12.2315,8.44978 -21.0844,4.98618 z m 9.3299,-9.76786 c 1.4977,-0.80152 1.9343,-2.11273 1.9343,-5.80887 0,-5.99264 -2.0541,-9.23208 -4.6914,-7.39869 -0.9947,0.69149 -2.9336,1.79897 -4.3086,2.46107 -1.375,0.6621 -3.7661,2.22883 -5.3135,3.48163 l -2.8135,2.27781 2.6461,2.4524 c 3.5655,3.30432 9.0414,4.41057 12.5466,2.53465 z m -9.0657,-20.96482 c 0,-0.55 -0.45,-1 -1,-1 -0.55,0 -1,0.45 -1,1 0,0.55 0.45,1 1,1 0.55,0 1,-0.45 1,-1 z"
       id="path7" />
    <path
       style="fill:#000000;fill-opacity:1"
       d="m 1100.3375,863.03489 c -9.4378,-1.95189 -19.4084,-9.82799 -23.3067,-18.41075 -2.4586,-5.41298 -2.3195,-10.11345 0.4606,-15.56538 2.1071,-4.1322 2.6368,-4.52517 6.481,-4.80794 4.4243,-0.32546 6.4442,1.5546 4.3735,4.07067 -0.5601,0.6805 -1.327,3.31122 -1.7043,5.84605 -1.1127,7.47589 3.6882,14.98326 11.7303,18.34349 5.2545,2.19546 7.625,1.95669 8.9262,-0.89908 0.948,-2.08069 0.5726,-3.58863 -2.509,-10.07754 -3.7486,-7.89368 -11.547,-20.3971 -17.9639,-28.80225 -3.5036,-4.58924 -4.8571,-9.83081 -2.8577,-11.06653 0.4549,-0.28114 4.7437,0.12286 9.5308,0.89779 11.5821,1.87491 12.0313,1.65178 11.2141,-5.57086 -0.733,-6.47924 0.2242,-7.91601 3.9467,-5.92381 2.5419,1.36041 8.4813,13.48078 8.4813,17.30768 0,4.65731 -2.1791,6.02592 -10.548,6.62471 -4.2864,0.30669 -7.9536,1.04328 -8.1492,1.63687 -0.1956,0.59359 1.0063,2.79297 2.6708,4.88751 1.6645,2.09454 3.0264,4.19508 3.0264,4.66786 0,0.47279 1.5101,2.54841 3.3557,4.6125 4.0512,4.53071 5.3794,6.96057 7.1505,13.08145 2.4795,8.56926 2.3092,16.66469 -0.381,18.1044 -2.9033,1.55384 -9.1843,2.02426 -13.9281,1.04316 z"
       id="path6" />
    <path
       style="fill:#000000;fill-opacity:1"
       d="m 1187.6404,900.4253 c -20.3438,-4.7872 -34.5,-9.6597 -34.5,-11.8747 0,-0.694 1.2022,-2.0495 2.6716,-3.0123 2.4164,-1.5833 3.4911,-1.6331 11.25,-0.5218 4.7181,0.6757 9.6131,1.4661 10.8778,1.7562 2.0924,0.4802 2.2383,0.2693 1.6212,-2.3431 -0.373,-1.579 -1.8573,-4.1374 -3.2983,-5.68537 -2.6093,-2.80294 -7.1519,-10.04757 -9.1253,-14.55316 -0.5703,-1.30223 -1.928,-3.50042 -3.017,-4.88486 -2.0377,-2.59049 -2.5306,-9.02952 -1.0908,-14.24745 0.9942,-3.60284 4.3414,-3.61437 14.6273,-0.0504 4.8474,1.67959 9.0494,2.81781 9.3378,2.52938 0.2885,-0.28842 -0.238,-2.65169 -1.1699,-5.2517 -2.1403,-5.97161 -2.2562,-12.22728 -0.2266,-12.22728 0.8019,0 2.611,1.96764 4.0204,4.37254 3.3417,5.70226 8.7643,21.78498 7.703,22.84628 -0.4538,0.4538 -5.6889,0.1025 -11.6336,-0.78067 -9.238,-1.37243 -11.011,-1.40337 -12.2014,-0.21291 -1.5735,1.57349 -0.9777,2.51809 10.6538,16.89089 10.8367,13.39071 12.8926,16.20611 15.1023,20.68121 2.0332,4.1177 2.0481,4.379 0.3548,6.25 -2.024,2.2365 -3.6274,2.2793 -11.9571,0.3192 z"
       id="path5" />
    <path
       style="fill:#000000;fill-opacity:1"
       d="m 1156.6404,959.1379 c -2.2,-0.4545 -8.95,-1.1215 -15,-1.4823 -6.05,-0.3608 -13.8883,-1.1134 -17.4183,-1.6725 -20.576,-3.2587 -39.5077,-14.7893 -47.0107,-28.6324 -2.0748,-3.8281 -3.4377,-5.063 -7.0619,-6.3982 -2.7638,-1.0183 -5.1633,-2.7583 -6.239,-4.5242 -3.9064,-6.4125 -3.6972,-6.8884 2.9005,-6.6012 2.5153,0.1094 4.9245,-0.018 5.3538,-0.2834 0.4293,-0.2654 0.1495,-2.5795 -0.6219,-5.1426 -2.025,-6.7285 -1.7642,-9.4081 1.5696,-16.1273 5.3572,-10.79766 13.1108,-14.81505 22.7367,-11.78075 6.532,2.05904 9.9698,5.46525 14.3284,14.19685 2.5906,5.1898 3.396,8.03 3.2947,11.6192 -0.1399,4.9575 -3.0678,13.4272 -4.8843,14.1288 -1.6456,0.6356 -7.4114,-2.1213 -8.0799,-3.8634 -0.331,-0.8624 0.3764,-4.6099 1.5719,-8.3279 2.5308,-7.8708 1.958,-10.7004 -2.8607,-14.1316 -4.8998,-3.489 -9.4463,-3.7797 -12.4311,-0.7949 -2.823,2.823 -5.6478,11.2413 -5.6478,16.8313 0,5.4049 3.5995,7.9272 17.6628,12.3768 6.5105,2.0598 16.5622,5.9495 22.3372,8.6437 5.775,2.6942 11.625,4.9059 13,4.9149 1.375,0.01 3.625,0.8964 5,1.972 1.375,1.0755 2.8934,1.9655 3.3741,1.9777 1.4983,0.038 16.988,7.2112 19.7603,9.1507 1.4489,1.0137 4.941,2.3378 7.7603,2.9424 5.1998,1.1152 7.1053,2.923 7.1053,6.741 0,1.0688 -0.6362,2.4713 -1.4139,3.1167 -1.8084,1.5009 -13.8708,2.2281 -19.0861,1.1506 z m -14.5,-11.0406 c 0,-0.5288 -1.9125,-1.47 -4.25,-2.0915 -2.3375,-0.6215 -5.767,-2.0592 -7.6211,-3.1949 -1.8542,-1.1358 -5.0042,-2.4049 -7,-2.8204 -1.9959,-0.4155 -6.3289,-1.891 -9.6289,-3.2788 -8.84,-3.7178 -23.7242,-7.8288 -24.7241,-6.8288 -1.3976,1.3976 6.952,8.1751 14.1192,11.4608 12.5092,5.7346 19.8551,7.622 29.8549,7.6703 5.2838,0.026 9.25,-0.3675 9.25,-0.9167 z"
       id="path4" />
    <path
       style="fill:#000000;fill-opacity:1"
       d="m 1073.64,1044.7251 c -1.6502,-0.7479 -3.5939,-2.075 -4.3194,-2.9492 -2.7384,-3.2996 2.2147,-7.7171 8.6528,-7.7171 4.8723,0 9.3886,-4.1543 13.5519,-12.4657 2.1274,-4.247 4.3192,-9.3672 4.8707,-11.3781 2.6376,-9.6185 1.6554,-24.0135 -2.241,-32.8453 -1.5754,-3.5706 -2.488,-4.3615 -6.1814,-5.3571 -11.08,-2.9867 -23.302,1.7689 -52.8332,20.5575 -7.975,5.074 -16.3,10.2027 -18.5,11.3972 -2.2,1.1944 -5.5331,3.2814 -7.4068,4.6376 -1.8738,1.3563 -7.0488,3.629 -11.49997,5.0505 -8.9106,2.8456 -16.9614,2.8157 -22.5686,-0.084 -1.6089,-0.832 -3.7595,-1.5127 -4.7792,-1.5127 -4.53958,0 -18.26348,-11.0315 -20.22948,-16.2608 -0.6697,-1.7815 -1.5859,-4.1392 -2.0358,-5.2392 -0.4499,-1.1 -1.0654,-3.4483 -1.3678,-5.2185 -0.779,-4.5606 5.7263,-18.1924 12.1555,-25.4716 2.7641,-3.1296 5.1846,-6.102 5.3789,-6.6053 0.5839,-1.5123 13.99108,-10.9078 22.41878,-15.7105 10.4366,-5.9475 18.43447,-6.1423 18.43447,-0.4491 0,2.4187 -2.6585,4.2623 -10.49997,7.2816 -16.8509,6.488 -32.50568,23.6376 -32.49838,35.6016 8e-4,1.4145 0.8696,4.1468 1.9305,6.0718 1.061,1.925 2.4403,4.625 3.0651,6 2.06008,4.5336 5.30338,7.0125 11.80048,9.0193 8.2576,2.5505 11.037,2.4947 21.07107,-0.4225 10.1247,-2.9435 15.7936,-6.6281 29.9108,-19.4411 6.0194,-5.4633 12.019,-10.2589 13.3324,-10.6568 1.3134,-0.398 3.513,-1.7437 4.888,-2.9906 1.375,-1.2469 4.3,-2.8315 6.5,-3.5214 2.2,-0.6898 5.35,-1.9451 7,-2.7893 5.0993,-2.6092 15.1999,-4.4185 23.4465,-4.1998 1.8956,0.05 5.6161,1.2721 8.2677,2.7153 10.6278,5.7844 16.5508,18.157 15.4563,32.2869 -1.2853,16.5944 -7.3087,33.9626 -14.6967,42.3771 -1.6356,1.8628 -2.9738,3.7776 -2.9738,4.255 0,0.4774 -1.6107,2.153 -3.5792,3.7237 -4.1757,3.3319 -9.6596,4.2421 -13.9212,2.3106 z"
       id="path3" />
    <path
       style="fill:#000000;fill-opacity:1"
       d="m 192.71565,2193.7249 c -3.9894,-3.9895 -3.5564,-8.7117 1.155,-12.5952 4.8478,-3.996 7.8202,-5.1026 65.7698,-24.4861 45.2962,-15.1511 75.8674,-25.4477 166,-55.9096 91.424,-30.8984 151.6582,-51.9098 219,-76.3933 42.5148,-15.4572 108.1507,-37.7755 114.3059,-38.8677 2.0318,-0.3606 7.0691,-1.9363 11.1941,-3.5015 25.9571,-9.8498 34.2713,-13.129 40.5,-15.9739 3.85,-1.7584 14.425,-5.7879 23.5,-8.9543 9.075,-3.1664 20.325,-7.2043 25,-8.973 4.675,-1.7687 17.6879,-6.5632 28.9174,-10.6544 21.3587,-7.7815 34.8683,-13.1129 36.6134,-14.449 0.567,-0.4341 6.642,-3.0338 13.5,-5.7771 6.8581,-2.7434 16.8004,-6.7656 22.094,-8.9382 13.44438,-5.518 34.30278,-12.4096 47.71135,-15.7638 l 11.3363,-2.8358 2.2923,-4.5466 c 3.4764,-6.8954 13.0604,-29.6405 20.0343,-47.5466 49.0599,-125.965 73.4737,-183.3168 94.8922,-222.9162 4.7348,-8.7539 8.6087,-16.5164 8.6087,-17.25 0,-0.9701 -1.7122,-1.3338 -6.2799,-1.3338 -23.4219,0 -108.9642,-17.3018 -131.2201,-26.5406 -4.4,-1.8265 -13.62497,-5.6424 -20.49997,-8.4798 -20.73568,-8.5578 -46.01768,-20.0119 -54.41558,-24.6534 -9.2264,-5.0992 -18.7129,-12.9237 -26.8912,-22.1796 -11.8021,-13.3573 -16.4088,-24.024 -17.3383,-40.1466 -0.5134,-8.9038 -0.3174,-10.2531 3.1227,-21.5 8.3347,-27.2486 16.0255,-36.8067 47.5224,-59.0598 25.591,-18.0806 33.53308,-23.638 34.77488,-24.3335 1.019,-0.5708 0.9689,-1.5815 -0.25,-5.0361 -2.0226,-5.7326 -1.9292,-7.9117 0.6336,-14.7831 2.9199,-7.8286 12.5867,-17.4443 22.8415,-22.7205 4.12497,-2.1224 7.64897,-3.9797 7.83097,-4.1273 0.1821,-0.1476 -0.1473,-1.1623 -0.732,-2.2548 -1.0428,-1.9485 -1.1731,-1.9526 -6.83107,-0.2186 -8.7003,2.6664 -25.6761,3.3633 -38.76788,1.5915 -14.2259,-1.9253 -20.4092,-3.6086 -30.6723,-8.3502 -7.3894,-3.4139 -9.0041,-4.6644 -13.6402,-10.5637 -18.5805,-23.6433 -25.1639,-41.2095 -25.1638,-67.1439 1e-4,-15.7719 0.8976,-20.2443 6.3671,-31.7297 4.0457,-8.4954 13.485,-21.0483 18.978,-25.238 8.5604,-6.5293 23.6445,-9.0412 36.6765,-6.1076 13.7911,3.1045 25.37838,7.3764 38.26128,14.1059 7.0436,3.6793 13.11857,6.3742 13.49997,5.9887 0.3814,-0.3855 0.6934,-15.2053 0.6934,-32.9328 v -32.2319 l 2.6552,-3.4863 c 5.7127,-7.5008 23.3343,-19.999 33.0796,-23.4619 2.3459,-0.8336 11.2265,-2.8525 19.7348,-4.4864 17.7921,-3.4167 24.6874,-3.7149 63.5304,-2.7476 30.7352,0.7654 42.9257,2.4389 75.3234,10.3403 10.2218,2.493 23.1058,5.4499 28.6309,6.571 12.7538,2.5877 23.1346,7.4599 28.0531,13.1665 5.1209,5.9414 6.0149,8.0216 7.8433,18.2498 3.7052,20.7264 4.4891,45.4346 2.6335,83 -0.5163,10.45 -1.2457,29.6875 -1.6211,42.75 l -0.6825,23.75 6.6597,0.175 c 3.6628,0.096 8.1222,0.3068 9.9097,0.4679 1.7875,0.161 13.825,0.3136 26.75,0.3391 12.925,0.025 28.45,0.4729 34.5,0.9945 6.05,0.5216 19.775,1.438 30.5,2.0363 10.725,0.5984 26.025,1.9471 34,2.9972 7.975,1.0501 17.2,2.1929 20.5,2.5397 3.3,0.3468 10.9162,1.49 16.9249,2.5404 6.0087,1.0504 12.7782,1.9099 15.0434,1.9099 12.3297,0 53.0461,7.5666 76.0317,14.1294 18.2744,5.2177 51.4592,16.7629 64.6725,22.5 8.0699,3.5038 14.9145,6.3706 15.2102,6.3706 0.9105,0 0.5134,-118.1292 -0.4774,-142 -0.5137,-12.375 -1.3759,-52.2 -1.916,-88.5 -0.5402,-36.3 -1.4438,-96.825 -2.008,-134.5 -1.7828,-119.03112 -3.034,-436.06232 -1.9063,-483.00004 1.8577,-77.31822 2.464,-137.94296 1.4943,-149.3978 -1.1899,-14.05511 -0.8801,-73.39148 0.5305,-101.6022 0.5913,-11.825 1.4694,-30.725 1.9515,-42 0.4821,-11.275 1.288,-22.75 1.791,-25.5 1.9818,-10.83506 4.4643,-20.06983 5.7672,-21.45339 2.2221,-2.35965 6.5208,1.58108 8.7777,8.04676 1.7435,4.99488 1.906,9.40488 2.1335,57.90663 0.1355,28.875 0.2198,77.925 0.1874,109 -0.032,31.075 -0.082,77.2 -0.1107,102.5 -0.029,25.3 0.056,74.8 0.1873,110 0.1632,43.68833 -0.1446,68.36532 -0.9698,77.75466 -0.9467,10.77112 -0.9446,20.4237 0.01,44.5 0.6702,16.90994 1.2088,48.99289 1.197,71.29545 -0.012,22.30255 0.419,46.37755 0.9575,53.5 1.3158,17.40559 1.9156,74.10794 2.554,241.44993 0.3178,83.2919 0.9292,142.7124 1.5015,145.9337 0.5694,3.2044 0.9781,40.7437 0.9961,91.5 l 0.031,86.0663 9.0504,6 c 13.509,8.9558 26.7785,23.1606 34.5735,37.0104 3.4018,6.0443 7.1419,13.2287 8.3112,15.9654 5.4051,12.65 6.9574,32.337 3.2157,40.7841 -3.234,7.3011 -13.3914,20.6441 -21.4534,28.1819 -3.9923,3.7327 -10.6455,9.9978 -14.785,13.9225 -4.1394,3.9246 -10.0801,9.1607 -13.2014,11.6357 l -5.6752,4.5 -0.2985,30.5 c -0.1643,16.775 -0.1273,49.175 0.082,72 0.3695,40.2884 0.3172,41.7117 -1.7925,48.7507 -2.0472,6.8301 -5.0336,11.2493 -7.6023,11.2493 -1.3357,0 -4.7703,-3.595 -6.3288,-6.6245 -2.1283,-4.1368 -4.3318,-70.0706 -3.5802,-107.1255 0.3821,-18.8375 0.3893,-34.25 0.016,-34.25 -1.0638,0 -28.7306,15.9376 -32.2107,18.5551 -4.8335,3.6355 -24.0236,12.9177 -32.6463,15.7909 -12.6021,4.1992 -63.6086,14.7338 -88.9858,18.3787 -2.0625,0.2963 -3.75,0.9479 -3.75,1.4481 0,0.5001 10.399,23.0534 23.1089,50.1183 12.7098,27.0649 27.1792,57.9839 32.1542,68.7089 4.9749,10.725 9.1728,19.6594 9.3286,19.8541 0.1557,0.1948 15.9489,-4.8677 35.0959,-11.25 19.1471,-6.3822 36.0798,-11.6041 37.6283,-11.6041 3.5906,0 6.6841,1.6453 6.6841,3.5551 0,0.8165 -1.0824,3.1992 -2.4053,5.2948 -1.8899,2.9939 -4.5782,4.9178 -12.5479,8.9802 -5.5785,2.8434 -10.8237,5.1699 -11.656,5.1699 -2.2055,0 -42.6164,15.9562 -44.146,17.431 -0.6817,0.6573 66.9025,140.8646 95.0457,197.1777 6.2921,12.5902 11.7706,24.0163 12.1743,25.3913 0.4038,1.375 2.2238,5.65 4.0444,9.5 7.9538,16.8191 10.9386,23.781 15.4345,36 9.0422,24.5748 10.3087,33.9809 5.6465,41.9363 -4.6408,7.9189 -15.4081,11.3029 -25.3088,7.9541 -4.6781,-1.5823 -6.7244,-3.1408 -12.556,-9.5632 -7.543,-8.307 -16.767,-20.7828 -22.4225,-30.3272 -1.9554,-3.3 -7.4776,-12.075 -12.2715,-19.5 -8.0156,-12.4148 -21.5189,-34.9575 -33.5447,-56 -2.6717,-4.675 -6.0686,-10.3002 -7.5486,-12.5005 -4.9669,-7.3842 -13.7184,-23.0857 -21.2596,-38.143 -4.1148,-8.2161 -10.2526,-19.1949 -13.6395,-24.3974 -9.4114,-14.4568 -32.926,-62.3295 -40.5017,-82.4563 -3.478,-9.2401 -7.4893,-16.3528 -9.6003,-17.0228 -1.9174,-0.6085 -21.847,5.1701 -39.437,11.4349 -6.05,2.1547 -14.6,4.9174 -19,6.1392 -4.4,1.2218 -12.95,4.3279 -19,6.9024 -6.05,2.5745 -17.1875,6.8464 -24.75,9.4931 l -13.75,4.8122 6e-4,4.1191 c 5e-4,3.6339 0.9085,22.1087 2.4632,50.1191 1.649,29.7091 2.6882,73.624 2.1267,89.8745 -0.6127,17.7337 -0.8037,19.1331 -3.1604,23.1546 -3.2689,5.5779 -7.8059,7.693 -17.7545,8.2771 l -7.8243,0.4594 -5.0856,-5.3828 c -10.0947,-10.6846 -17.1408,-31.5898 -22.206,-65.8828 -0.853,-5.775 -2.884,-18.7365 -4.5133,-28.8033 -1.6294,-10.0669 -3.9602,-26.2669 -5.1796,-36 -1.2193,-9.7332 -2.3318,-17.8528 -2.4721,-18.0436 -0.2316,-0.3148 -51.2365,16.8796 -155.252,52.3374 l -38.3573,13.0756 -3.2581,7.9669 c -5.8653,14.342 -10.0836,22.7622 -18.3459,36.6203 -9.6761,16.2293 -16.8693,30.4813 -24.654,48.8467 -14.5756,34.3864 -27.9893,61.1902 -42.0368,84 -18.30437,29.7218 -27.46887,36.2721 -41.99055,30.0123 -6.3898,-2.7543 -8.1305,-4.3751 -11.291,-10.5123 -1.8138,-3.5223 -2.5525,-6.4777 -2.4994,-10 0.1,-6.6133 7.2056,-34.6609 11.7941,-46.5515 2.0053,-5.1967 6.47,-17.7735 9.92158,-27.9485 9.0638,-26.7196 17.5876,-48.8168 27.9662,-72.5 1.92817,-4.4 3.16877,-8.12 2.75687,-8.2668 -0.6959,-0.2478 -102.62055,34.2733 -414.64835,140.4382 -260.3049,88.5665 -309.1553,105.0714 -314.5,106.2584 -3.025,0.6718 -15.4,4.5447 -27.5,8.6064 -24.5285,8.2336 -34.6697,11.0443 -43.4226,12.0346 -5.4823,0.6202 -6.1201,0.4773 -8.5022,-1.9047 z m 788.75628,-107.6483 c 1.3802,-1.6402 3.9021,-6.7027 5.6042,-11.25 3.6306,-9.699 5.9637,-14.5601 13.80687,-28.7678 6.2599,-11.3395 15.1935,-30.4061 25.7701,-55 10.5999,-24.6479 19.2659,-43.3882 27.2833,-59 7.277,-14.1702 14.9315,-30.4297 21.891,-46.5 1.9055,-4.4 5.393,-12.275 7.7501,-17.5 2.3571,-5.225 5.7161,-13.55 7.4646,-18.5 6.4914,-18.3773 8.0519,-22.0007 22.6094,-52.5 11.535,-24.1668 15.0661,-31.8619 20.1692,-43.953 2.4265,-5.7492 4.7812,-10.9242 5.2328,-11.5 0.4515,-0.5759 1.7512,-3.522 2.8883,-6.547 4.0359,-10.7363 12.2158,-28.4029 17.541,-37.884 17.6091,-31.3512 40.4402,-75.4165 44.7814,-86.4302 l 2.0279,-5.1446 -2.119,-1.7158 c -2.158,-1.7474 -3.0096,-1.9075 -20.5327,-3.86 -5.5,-0.6128 -10.9732,-1.3447 -12.1627,-1.6263 -1.9699,-0.4664 -4.1865,3.5742 -24.8641,45.3244 -39.2798,79.31 -52.4489,108.4668 -69.4309,153.7218 -3.7387,9.9631 -10.9554,28.0147 -16.0372,40.1147 -5.0819,12.1 -12.2972,29.425 -16.0342,38.5 -6.4141,15.5763 -17.8995,41.0809 -22.9612,50.9878 -1.2612,2.4683 -3.9655,9.6738 -6.0097,16.0122 -2.0442,6.3384 -4.661,13.3753 -5.815,15.6374 -2.3708,4.647 -4.9122,10.9945 -9.3539,23.3626 -4.41467,12.2927 -17.14287,41.7556 -22.39497,51.8394 -2.481,4.7633 -5.1301,10.9106 -5.887,13.6606 -0.7568,2.75 -2.7772,8.923 -4.48968,13.7178 -3.3468,9.3704 -3.3259,11.164 0.21308,18.2822 5.0763,10.2104 8.51,11.9241 13.059,6.5178 z m 666.73417,-41.053 c 2.9188,-1.562 2.4541,-6.7415 -1.6921,-18.863 -8.0513,-23.5376 -13.8465,-37.0708 -29.3768,-68.6018 -43.1807,-87.6693 -51.3247,-104.342 -66.187,-135.5 -8.7888,-18.425 -21.7476,-44.75 -28.7974,-58.5 -7.0498,-13.75 -14.701,-29.5 -17.0027,-35 -2.3017,-5.5 -5.2705,-12.3346 -6.5973,-15.1881 -1.3268,-2.8534 -2.4124,-5.44 -2.4124,-5.7478 0,-0.9969 -54.5703,-118.2632 -55.5739,-119.423 -0.1708,-0.1974 -7.3454,0.2328 -15.9434,0.956 -12.6462,1.0637 -15.8026,1.6321 -16.5214,2.9752 -1.4186,2.6507 4.3089,22.4102 9.3995,32.4277 0.8385,1.65 4.8781,11.1 8.977,21 4.0989,9.9 12.7218,29.475 19.1622,43.5 6.4403,14.025 15.0312,33.0006 19.091,42.1681 4.0598,9.1675 10.9287,23.7925 15.2641,32.5 4.3355,8.7075 8.0542,16.2917 8.2638,16.8536 0.2096,0.562 2.3058,4.4645 4.6582,8.6722 2.3524,4.2078 5.168,10.2401 6.257,13.4052 2.0635,5.9978 25.8545,51.1927 31.5324,59.9009 5.1839,7.9506 22.4321,39.501 31.4346,57.5 4.539,9.075 12.3283,23.25 17.3095,31.5 13.8663,22.9658 33.2387,53.8788 40.7337,65 8.6205,12.7911 22.5153,29.5 24.5315,29.5 0.8556,0 2.4261,-0.4658 3.4899,-1.0352 z m -309.9117,-84.8363 c 1.5612,-12.7606 1.7807,-51.7881 0.391,-69.533 -1.5125,-19.313 -2.3165,-33.5107 -3.035,-53.5955 -0.9318,-26.0485 -1.7085,-38.0453 -3.5934,-55.5 -4.936,-45.7095 -5.1597,-49.2953 -6.9257,-111 -1.1682,-40.814 -2.9448,-69.0547 -4.476,-71.1488 -0.9882,-1.3514 -2.9665,-1.3989 -16.5686,-0.397 -8.4955,0.6257 -16.0223,1.333 -16.7262,1.5718 -0.9373,0.318 -1.1356,2.1122 -0.7408,6.7041 0.2965,3.4484 0.7323,16.3949 0.9684,28.7699 0.2361,12.375 0.8903,24.975 1.4538,28 0.5635,3.025 1.4808,11.125 2.0383,18 0.5576,6.875 1.4501,16.775 1.9833,22 0.5332,5.225 1.4948,14.9 2.1368,21.5 1.851,19.0271 2.6728,27.2599 3.8428,38.5 0.6011,5.775 1.2533,20.4 1.4494,32.5 0.2931,18.0882 1.0066,26.9787 4.0123,50 2.0108,15.4 4.5375,32.725 5.6151,38.5 1.0776,5.775 3.0875,16.575 4.4664,24 3.6167,19.475 9.7174,43.0853 12.7014,49.1555 2.0716,4.2142 6.5041,8.0581 8.7859,7.6192 1.0842,-0.2085 1.7682,-1.9478 2.2208,-5.6462 z m -218.654,-99.1304 c 7.15,-2.2009 19.075,-5.8333 26.5,-8.072 25.1298,-7.5768 35.4352,-11.1741 62,-21.6422 29.5776,-11.6553 49.1775,-18.8462 65.3662,-23.9815 l 10.8663,-3.447 -0.6131,-3.8339 c -0.8978,-5.615 -7.6091,-93.1651 -10.1586,-132.5215 -0.3207,-4.95 -1.4555,-19.4391 -2.5219,-32.198 -1.0664,-12.7589 -1.9458,-24.9089 -1.9542,-27 -0.027,-6.7916 0.1003,-6.7516 -17.4258,-5.4642 -9.9966,0.7343 -16.6923,1.697 -18.5749,2.6705 -3.1007,1.6034 -11.7214,13.5342 -14.3843,19.9073 -0.8634,2.0665 -3.7702,7.4309 -6.4594,11.9208 -2.6892,4.49 -8.8608,15.5886 -13.7145,24.6636 -11.7843,22.0329 -61.0476,121.7887 -69.0708,139.8648 -8.6833,19.5634 -24.9327,63.1354 -23.5451,63.135 0.3796,-10e-5 6.5401,-1.8009 13.6901,-4.0017 z m 273.9531,-92.6073 c 24.2258,-8.0351 47.6037,-15.7976 51.9509,-17.25 10.1747,-3.3994 10.9513,-4.6232 7.2446,-11.4157 -5.5934,-10.2496 -12.3577,-24.3574 -15.6849,-32.7126 -1.859,-4.6681 -7.6031,-16.8181 -12.7646,-27 -9.6884,-19.1116 -16.3511,-34.8167 -22.4901,-53.0125 -4.2465,-12.5867 -11.4922,-26.2353 -16.3917,-30.8767 l -3.5645,-3.3768 -7.6264,0.7644 c -4.1945,0.4204 -14.1514,1.2649 -22.1264,1.8767 l -14.5,1.1124 0.2833,6.5 c 0.4472,10.2589 2.0399,38.6067 4.2421,75.5 1.1162,18.7 2.6851,45.475 3.4866,59.5 2.1151,37.0129 2.7069,45 3.334,45 0.3081,0 20.3812,-6.5741 44.6071,-14.6092 z m -83.4531,-191.2276 c 39.8132,-0.7583 59.457,-1.5306 69.5,-2.7323 7.7,-0.9214 18.2979,-1.8111 23.5508,-1.9771 8.5337,-0.2696 19.684,-1.4629 41.4492,-4.436 3.85,-0.5259 9.025,-1.1603 11.5,-1.4097 24.2025,-2.4394 53.5323,-9.5816 92.8063,-22.5999 18.1685,-6.0224 27.7925,-9.7738 37.1066,-14.4643 9.1656,-4.6158 26.8674,-15.5015 33.9077,-20.8516 3.1237,-2.3737 11.6137,-8.4594 18.8668,-13.5238 15.8489,-11.0661 25.9016,-21.4726 32.8701,-34.0269 4.6162,-8.3164 4.8124,-8.9991 5.213,-18.1416 0.8414,-19.2012 -4.3423,-31.3769 -21.6314,-50.8091 -5.7367,-6.4477 -10.2128,-10.1989 -18.9015,-15.8401 -15.5848,-10.1186 -24.4675,-14.3829 -47.7376,-22.9173 -5.5,-2.0172 -12.7,-4.9165 -16,-6.4429 -7.8513,-3.6316 -15.8647,-5.9525 -39.5,-11.4403 -10.725,-2.4902 -26.925,-6.338 -36,-8.5506 -25.8971,-6.3143 -69.0001,-13.9676 -87,-15.4476 -3.575,-0.294 -8.75,-0.7961 -11.5,-1.1159 -14.6589,-1.7048 -71.3856,-4.0882 -101.75,-4.2752 l -34.75,-0.214 v 2.3354 c 0,3.578 1.665,5.0232 12.834,11.1395 14.0167,7.6758 16.7002,9.4706 23.6928,15.8466 10.7097,9.7653 14.804,21.1817 11.9734,33.3867 -2.7905,12.0326 -8.3592,19.5458 -22.2181,29.9763 -14.4025,10.8397 -29.9736,14.2261 -80.2254,17.4474 -25.3512,1.6251 -94.0903,0.6922 -110.8513,-1.5044 -41.9569,-5.4987 -91.4035,-19.8138 -108.80687,-31.5002 l -3.1014,-2.0826 -5.7781,3.0834 c -22.86958,12.2038 -45.70688,32.6722 -59.05018,52.9249 -12.957,19.6664 -16.0224,33.8271 -10.9754,50.7026 2.0174,6.7456 4.8363,9.9749 15.9068,18.2229 17.6506,13.1504 33.1244,21.8037 44.70258,24.9985 4.1815,1.1538 11.621,3.8407 16.5321,5.9707 8.2004,3.5568 40.63297,13.3581 64.84297,19.596 12.0232,3.0978 38.3711,7.8933 58.3855,10.6265 30.5396,4.1705 34.7775,4.7933 39.1461,5.7531 7.4931,1.6463 33.0722,5.0755 39.9905,5.3612 11.581,0.4784 64.1846,0.014 121,-1.0683 z m -128,-180.044 c 4.675,-0.6034 18.3293,-2.009 30.3429,-3.1237 22.562,-2.0933 47.7639,-6.7711 58.705,-10.8962 11.275,-4.2511 18.2763,-11.8895 19.5737,-21.3551 0.496,-3.6188 0.1511,-5.5823 -1.6251,-9.2515 -2.9209,-6.0337 -11.3286,-15.0669 -20.0221,-21.5117 -5.491,-4.0707 -7.547,-5.049 -10.0817,-4.7972 -3.0274,0.3006 -3.3013,0.6919 -5.5666,7.9524 -4.147,13.2915 -15.8665,23.8031 -33.4924,30.0404 -27.6349,9.7792 -60.5316,14.2894 -103.3337,14.1672 -51.0586,-0.1458 -81.0293,-6.2745 -94.2654,-19.2762 -4.183,-4.1089 -10.3995,-14.2414 -12.9235,-21.0643 -0.9163,-2.4768 -1.8084,-4.6881 -1.9825,-4.9139 -0.7318,-0.9494 -10.07677,6.4269 -12.99307,10.2558 -8.1228,10.6646 -4.0488,20.1389 12.66447,29.4523 7.5379,4.2004 33.5457,14.4794 44.5,17.5876 16.4932,4.6798 35.8093,6.5206 80,7.6236 32.9062,0.8214 37.9282,0.7329 50.5,-0.8895 z m -24.0918,-37.7042 c 19.0542,-1.4666 21.4505,-1.8734 32.0918,-5.4489 26.2592,-8.8232 37.1853,-14.8938 42.9135,-23.843 6.9179,-10.808 13.2491,-33.4507 14.6549,-52.4114 0.3349,-4.5164 1.0321,-9.6081 1.5493,-11.3148 0.5199,-1.7155 0.9636,-22.062 0.9922,-45.5 0.059,-48.4891 -0.099,-49.7756 -6.3286,-51.3152 -2.7589,-0.6819 -5.2041,-0.4833 -9.4983,0.7717 -13.9627,4.0804 -39.873,8.5457 -68.783,11.8538 -15.2052,1.74 -74.6699,1.7337 -83.8779,-0.01 -5.8359,-1.1044 -18.02,-4.9122 -32.6221,-10.1951 -7.3802,-2.6702 -15.6168,-6.6483 -21.2294,-10.2534 -3.2109,-2.0625 -6.0363,-3.75 -6.2787,-3.75 -0.2423,0 -1.1271,1.3277 -1.9662,2.9503 -1.2288,2.3762 -1.5257,7.1336 -1.5257,24.4433 0,21.0766 -0.043,21.5231 -2.2225,23.0497 -4.194,2.9376 -9.6372,1.9883 -17.80337,-3.1049 -10.578,-6.5974 -31.53418,-16.6338 -41.50218,-19.8763 -7.2103,-2.3455 -9.5109,-2.6651 -15.5448,-2.1592 -9.1592,0.7679 -14.3092,3.4109 -19.9271,10.2266 -6.7159,8.1479 -11.4795,18.3172 -13.8958,29.6647 -3.4088,16.0088 -2.9772,21.4313 3.3918,42.612 6.3118,20.9906 6.8047,22.0961 12.823,28.7565 9.4942,10.507 23.1298,15.4373 42.6943,15.4373 10.17988,0 12.31208,-0.3501 23.83338,-3.9133 16.44567,-5.0862 19.36247,-5.547 23.04827,-3.641 2.1318,1.1024 3.5271,3.0665 5.0278,7.0776 1.1425,3.0534 2.0772,5.8754 2.0772,6.2711 0,1.3944 6.7301,17.7794 9.737,23.7056 1.6744,3.3 3.9672,6.8334 5.0952,7.8521 3.0017,2.7107 38.556,10.7607 55.2016,12.4983 13.9595,1.4573 45.951,1.2521 67.8744,-0.4354 z m -184.40817,-66.0631 c -1.1,-0.2881 -7.42398,-3.142 -14.05338,-6.3419 -10.1381,-4.8935 -12.9189,-6.7576 -17.5,-11.7315 -11.1044,-12.0564 -17.6673,-27.7118 -16.6949,-39.8248 1.3739,-17.1166 13.6201,-28.2067 32.2483,-29.2041 15.34178,-0.8214 29.17358,3.8505 39.38208,13.3018 10.77367,9.9744 15.01977,22.3023 13.70067,39.777 -0.9022,11.9502 -3.0845,23.0195 -5.2668,26.7138 -2.9368,4.9716 -9.30787,7.3593 -20.31597,7.614 -5.225,0.1208 -10.4,-0.016 -11.5,-0.3043 z m 18.218,-12.9792 c 4.5995,-3.4149 5.2513,-5.8387 5.2673,-19.5852 0.018,-15.7178 -1.8421,-21.7395 -8.8949,-28.7923 -5.7867,-5.7867 -17.8586,-11.9952 -23.32358,-11.9952 -11.7573,0 -18.0257,11.6837 -15.7783,29.4092 2.6804,21.1408 15.6477,34.1509 33.22948,33.3392 4.8703,-0.2249 7.4832,-0.8783 9.5,-2.3757 z m 49.79017,-144.9187 c 14.3522,-6.3473 30.6226,-8.9761 61.9918,-10.0161 48.8434,-1.6194 95.1747,4.2296 119.9479,15.1425 4.4287,1.9509 8.5516,3.7673 9.1621,4.0366 2.0731,0.9143 7.39,-4.5808 7.39,-7.6378 0,-3.5088 -2.8563,-5.6105 -12.5,-9.1975 -22.3703,-8.3207 -45.3568,-13.9319 -74.5,-18.186 -15.1798,-2.2159 -69.1718,-2.3182 -85.3529,-0.1618 -14.4644,1.9277 -15.2758,2.101 -24.6471,5.2648 -6.113,2.0638 -8.3946,3.4659 -12.3374,7.5815 -5.5776,5.822 -6.6626,8.1484 -6.6626,14.2849 0,3.1454 0.5993,5.0342 2.0611,6.496 l 2.0612,2.0612 4.0638,-3.6715 c 2.2351,-2.0192 6.43,-4.7178 9.3221,-5.9968 z"
       id="path2" />
    <path
       style="fill:#000000;fill-opacity:1"
       d="m 3054.6404,2325.6174 c -4.95,-1.2224 -13.275,-3.611 -18.5,-5.308 -5.225,-1.6969 -11.975,-3.8382 -15,-4.7584 -6.4728,-1.9689 -26.5194,-11.2128 -43.6346,-20.1207 -6.6778,-3.4756 -17.287,-8.308 -23.576,-10.7387 -6.289,-2.4306 -13.6519,-5.5298 -16.362,-6.8871 -2.7101,-1.3573 -8.0774,-3.4781 -11.9274,-4.7129 -3.85,-1.2348 -10.825,-3.9571 -15.5,-6.0494 -4.675,-2.0924 -14.125,-6.2611 -21,-9.2637 -35.4112,-15.4657 -208.5806,-91.2249 -264,-115.4963 l -63.5,-27.8103 -0.5486,8.0435 c -0.5306,7.7808 -2.4755,13.4802 -5.1943,15.2219 -6.0494,3.8753 -15.3608,4.3449 -19.0143,0.9589 -5.6995,-5.2821 -10.125,-18.553 -11.4018,-34.1914 l -0.4943,-6.0541 -15.6734,-6.8794 c -8.6203,-3.7837 -28.7233,-12.5785 -44.6733,-19.5439 -15.95,-6.9655 -45.0131,-19.6832 -64.5847,-28.2615 -19.5716,-8.5783 -36.1837,-15.7342 -36.9157,-15.902 -0.7714,-0.1768 -1.6448,0.9563 -2.0774,2.6949 -2.4612,9.8922 -4.1166,16.4256 -4.9409,19.5 -2.1065,7.8568 -11.3162,44.9165 -12.5498,50.5 -0.7291,3.3 -3.8373,15.9 -6.9071,28 -3.0699,12.1 -6.4427,25.6 -7.4952,30 -1.0525,4.4 -2.3962,9.8 -2.9859,12 -0.5897,2.2 -1.4811,5.8 -1.9809,8 -0.4997,2.2 -1.8788,7.6 -3.0646,12 -1.1858,4.4 -2.5103,9.575 -2.9433,11.5 -3.4316,15.2562 -4.5882,19.2491 -7.1446,24.6644 -1.6004,3.3905 -2.9099,6.7899 -2.9099,7.5543 0,4.7029 -13.6406,19.841 -20.545,22.8006 -12.7826,5.4793 -21.5673,-0.9201 -24.0494,-17.5193 -1.2085,-8.0821 -0.9667,-30.3493 0.4235,-39 0.7071,-4.4 1.6853,-11.375 2.1739,-15.5 0.4885,-4.125 1.3629,-10.2 1.943,-13.5 0.5802,-3.3 1.4616,-8.925 1.9589,-12.5 0.4972,-3.575 1.3862,-8.3 1.9757,-10.5 1.4334,-5.3499 1.3875,-8.4861 -0.1306,-8.9204 -1.8173,-0.52 -55.7382,-20.3136 -65.75,-24.1359 -7.5057,-2.8656 -26.962,-10.0933 -41.5,-15.4167 -2.75,-1.007 -9.725,-3.64 -15.5,-5.8511 -5.775,-2.2112 -15,-5.6721 -20.5,-7.6909 -10.1965,-3.7427 -38.5659,-14.2721 -53,-19.6712 -4.4,-1.6458 -9.125,-3.3629 -10.5,-3.8158 -1.375,-0.4529 -6.55,-2.2747 -11.5,-4.0484 -19.5832,-7.0172 -50.1274,-17.4336 -72,-24.5541 -12.65,-4.1181 -28.85,-9.5355 -36,-12.0386 -22.2218,-7.7796 -34.8226,-12.0339 -39.5,-13.3361 -2.475,-0.689 -5.625,-1.5984 -7,-2.0208 -1.375,-0.4224 -4.525,-1.3224 -7,-2 -2.475,-0.6776 -5.625,-1.5776 -7,-2 -2.5246,-0.7756 -8.1603,-2.3021 -15.5,-4.1985 -2.2,-0.5684 -5.125,-1.3791 -6.5,-1.8015 -1.375,-0.4224 -4.3,-1.2331 -6.5,-1.8015 -2.2,-0.5684 -6.025,-1.5814 -8.5,-2.2512 -2.475,-0.6697 -5.85,-1.5763 -7.5,-2.0147 -1.65,-0.4384 -5.025,-1.3384 -7.5,-2 -2.475,-0.6616 -5.85,-1.5616 -7.5,-2 -1.65,-0.4384 -5.025,-1.3384 -7.5,-2 -6.2846,-1.68 -9.7945,-2.6115 -15,-3.9808 -2.475,-0.6511 -5.625,-1.5475 -7,-1.9921 -1.375,-0.4446 -4.1477,-1.0804 -6.1615,-1.4128 -3.2508,-0.5365 -3.9003,-0.2689 -5.791,2.3864 -1.1713,1.6449 -3.4109,6.0454 -4.977,9.7787 -1.566,3.7334 -5.4282,12.638 -8.5826,19.788 -3.1545,7.15 -7.8733,17.95 -10.4863,24 -19.7616,45.7546 -39.6725,87.7051 -44.3407,93.4217 -1.7209,2.1074 -15.1251,8.0783 -18.1352,8.0783 -5.6748,0 -15.1752,-7.2433 -17.4644,-13.3151 -0.5837,-1.5483 -1.0613,-5.5461 -1.0613,-8.884 0,-5.8443 0.5978,-9.0949 3.4575,-18.8009 0.7292,-2.475 1.8516,-7.2 2.4943,-10.5 0.6426,-3.3 1.5914,-7.3819 2.1083,-9.071 0.517,-1.689 0.9399,-4.025 0.9399,-5.191 0,-1.166 0.45,-2.3981 1,-2.738 0.55,-0.3399 1,-1.9149 1,-3.5 0,-1.5851 0.45,-3.1601 1,-3.5 0.55,-0.3399 1,-1.9149 1,-3.5 0,-1.5851 0.45,-3.1601 1,-3.5 0.55,-0.3399 1,-1.7226 1,-3.0726 0,-1.35 0.3975,-3.2359 0.8833,-4.191 1.4929,-2.9345 2.8309,-6.5345 4.1766,-11.2364 0.7083,-2.475 1.6596,-4.9275 2.114,-5.45 0.4543,-0.5225 0.8261,-1.7661 0.8261,-2.7636 0,-0.9974 0.45,-2.7074 1,-3.8 0.55,-1.0925 1.45,-2.8803 2,-3.9728 0.55,-1.0926 1,-2.4643 1,-3.0483 0,-0.5841 0.9,-2.9247 2,-5.2014 1.1,-2.2768 2,-4.7361 2,-5.4653 0,-0.7292 0.4008,-2.1071 0.8906,-3.0622 1.8159,-3.5403 9.1094,-27.1829 9.1094,-29.5289 0,-1.337 1.296,-5.3056 2.88,-8.8192 2.989,-6.6299 9.2033,-23.3583 16.6751,-44.8883 2.386,-6.875 7.079,-20.375 10.4289,-30 3.35,-9.625 8.7597,-25.375 12.0215,-35 3.2618,-9.625 9.2876,-27.3356 13.3906,-39.357 l 7.46,-21.8569 -5.3301,-7.1431 -5.33,-7.143 -16.848,-6.8911 c -9.2664,-3.7902 -19.7741,-8.5816 -23.3504,-10.6476 -3.5763,-2.066 -18.6872,-9.8137 -33.5798,-17.2171 -31.7874,-15.8021 -42.4811,-22.7245 -44.9037,-29.068 -1.2273,-3.2136 -1.3753,-4.9112 -0.6048,-6.9375 1.8142,-4.7718 4.8067,-4.5637 23.5081,1.6348 13.4634,4.4624 20.1879,7.3792 31.5933,13.704 15.341,8.5073 36.6598,19.1634 42.807,21.3969 2.0253,0.7358 5.2573,2.0154 7.1823,2.8436 l 3.5,1.5057 -0.329,-7.6619 c -0.2549,-5.9369 -0.9866,-9.0447 -3.25,-13.8048 -2.55,-5.3628 -2.921,-7.2749 -2.921,-15.0556 0,-7.8993 0.4059,-9.9194 3.57,-17.7663 3.9335,-9.7549 8.5253,-18.6259 14.77,-28.5351 20.451,-32.4513 88.97,-110.2882 125.4747,-142.5379 5.038,-4.4507 6.1912,-6.4849 10.3337,-18.227 1.6949,-4.8043 4.6728,-11.8851 6.6177,-15.7351 1.9449,-3.85 3.8706,-8.35 4.2795,-10 0.6427,-2.5939 2.225,-7.3715 4.9678,-15 0.3955,-1.1 1.6713,-4.475 2.835,-7.5 1.1638,-3.025 4.6292,-13.1038 7.7008,-22.3973 3.0717,-9.2936 6.2008,-18.5186 6.9535,-20.5 0.7527,-1.9815 3.4002,-9.2277 5.8832,-16.1027 2.4831,-6.875 6.5783,-17.9 9.1005,-24.5 2.5221,-6.6 5.2316,-13.8 6.021,-16 1.3654,-3.805 10.9422,-27.6279 36.871,-91.7186 l 11.6185,-28.7187 -3.9656,-6.1355 c -7.4457,-11.5201 -10.2179,-22.022 -12.0808,-45.7662 -2.006,-25.5678 1.5878,-49.8164 11.5098,-77.661 2.3518,-6.6 6.1157,-17.6811 8.3641,-24.6248 3.9652,-12.245 5.6391,-16.3821 12.7842,-31.5968 1.8653,-3.9718 3.3914,-7.7669 3.3914,-8.4334 0,-1.6204 3.695,-12.3006 6.0836,-17.5841 1.054,-2.3315 1.9164,-4.4827 1.9164,-4.7804 0,-0.7775 11.1414,-23.1393 14.19,-28.4805 1.4126,-2.475 6.7504,-11.925 11.8616,-21 12.9233,-22.9453 20.9719,-34.4651 34.3678,-49.1901 12.7499,-14.0149 20.9597,-21.1344 29.8115,-25.8523 13.5745,-7.2352 15.2168,-7.3427 109.7691,-7.1903 83.3709,0.1345 142.9345,1.307 162.5,3.199 6.05,0.5851 15.95,1.4764 22,1.9808 6.05,0.5043 13.925,1.3933 17.5,1.9756 3.575,0.5822 10.1,1.5402 14.5,2.1289 18.8189,2.518 37.3135,5.3699 51.5,7.9413 3.575,0.648 8.75,1.5854 11.5,2.0831 8.396,1.5194 17.8141,3.0649 21.5,3.5281 1.925,0.2419 5.75,0.8549 8.5,1.3623 2.75,0.5074 8.375,1.4225 12.5,2.0336 36.9693,5.4766 60.3958,12.8783 74.5795,23.5634 13.6492,10.2825 21.9021,23.4937 26.8774,43.0249 2.328,9.1389 2.5261,11.6659 2.5406,32.4117 0.017,23.7802 -0.5006,29.6346 -5.1023,57.75 -3.3771,20.6338 -12.5957,59.2998 -15.9142,66.75 -0.4899,1.1 -1.5485,4.25 -2.3522,7 -2.1168,7.2421 -9.9698,27.3648 -15.6103,40 -0.9821,2.2 -5.4095,12.775 -9.8387,23.5 -23.467,56.8243 -30.0766,68.4592 -44.4273,78.2058 -2.5598,1.7386 -5.235,7.8972 -13.5933,31.2942 -2.1614,6.05 -5.3677,14.825 -7.1253,19.5 -6.7719,18.0129 -9.4364,26.7697 -10.3455,34 -1.929,15.3421 0.022,330.3659 2.2604,365 0.5866,9.075 1.4996,23.925 2.0289,33 0.5294,9.075 1.431,21.9 2.0036,28.5 1.4721,16.9668 3.4593,57.9163 5.7263,118 0.4358,11.55 1.2067,21.6438 1.713,22.4306 0.5064,0.7868 1.2891,16.0868 1.7394,34 0.4503,17.9132 1.2811,41.3444 1.8462,52.0694 0.5651,10.725 1.3574,29.1496 1.7606,40.9436 l 0.7332,21.4436 51,21.8477 c 156.7951,67.1687 229.4683,100.0319 270.5,122.3218 13.0748,7.1026 62.2704,29.0735 76.5,34.1651 3.85,1.3775 23.4683,10.6662 43.5961,20.6414 20.1279,9.9753 41.6337,20.5813 47.7907,23.5691 7.939,3.8525 12.346,6.6814 15.1539,9.7276 2.1776,2.3625 3.9593,4.7439 3.9593,5.2921 0,0.8542 -5.3464,4.2504 -6.2003,3.9386 -0.1649,-0.06 -4.3497,-1.1096 -9.2997,-2.332 z m -761.5498,-124.8086 c 1.2584,-3.9875 2.6331,-8.15 3.0549,-9.25 0.4218,-1.1 1.3121,-4.025 1.9784,-6.5 0.6663,-2.475 1.6176,-5.2814 2.114,-6.2364 0.4964,-0.9551 0.9025,-2.841 0.9025,-4.191 0,-1.35 0.4025,-2.7033 0.8944,-3.0073 0.4919,-0.304 1.144,-2.2431 1.4491,-4.309 0.91,-6.1611 2.415,-13.4969 3.6427,-17.7563 0.6341,-2.2 1.3805,-5.125 1.6587,-6.5 0.2782,-1.375 0.8706,-3.4 1.3164,-4.5 0.8047,-1.9852 2.3601,-7.5521 4.1212,-14.75 1.3707,-5.6024 2.9973,-11.5493 4.9918,-18.25 3.2521,-10.9257 5.9257,-22.7439 5.9257,-26.1934 0,-1.4655 0.4216,-4.0466 0.9369,-5.7356 0.5153,-1.6891 1.6261,-5.321 2.4684,-8.071 0.8423,-2.75 2.7192,-8.375 4.1708,-12.5 3.0756,-8.74 5.4115,-19.1813 7.0543,-31.5315 l 0.5362,-4.0314 -5.6571,-2.3448 c -3.7862,-1.5692 -5.9891,-2.0127 -6.661,-1.3408 -1.0302,1.0302 -2.6368,6.4249 -3.499,11.7485 -0.2672,1.65 -0.8745,3.9 -1.3495,5 -0.475,1.1 -1.0992,3.35 -1.3871,5 -0.2878,1.65 -1.0295,5.25 -1.6481,8 -0.6186,2.75 -1.4952,8.375 -1.948,12.5 -0.4528,4.125 -1.2869,9.3 -1.8536,11.5 -0.959,3.7234 -1.5595,5.887 -4.1632,15 -2.6793,9.3775 -3.2036,11.2859 -4.1212,15 -3.4817,14.0935 -7.8514,36.3782 -9.9023,50.5 -0.5192,3.575 -1.3502,10.3716 -1.8466,15.1035 -0.4965,4.7319 -1.5025,9.6819 -2.2355,11 -0.7331,1.3181 -1.6805,5.5465 -2.1053,9.3965 -1.2051,10.9211 -2.0809,24.5 -1.5803,24.5 0.2494,0 1.483,-3.2625 2.7414,-7.25 z m -12.3171,-94.25 c 2.7805,-6.847 2.742,-9.8353 -0.1331,-10.3094 -1.1,-0.1813 -6.275,-1.6332 -11.5,-3.2264 -5.225,-1.5931 -11.975,-3.5532 -15,-4.3556 -3.025,-0.8025 -11.8,-3.3309 -19.5,-5.6187 -24.7389,-7.3504 -76.1195,-22.384 -82,-23.9927 -11.2056,-3.0654 -21.5138,-6.4456 -24.5,-8.034 -3.4044,-1.8109 -16.9089,-6.4335 -26,-8.8999 -10.3309,-2.8028 -18.6093,-5.3252 -20.2364,-6.166 -0.9551,-0.4935 -2.4237,-0.8973 -3.2636,-0.8973 -0.8399,0 -2.3085,-0.414 -3.2636,-0.9201 -4.3298,-2.2942 -19.2651,-7.0569 -34.7364,-11.077 -11.1632,-2.9006 -17.4546,-5.0185 -21.2804,-7.1636 -1.8042,-1.0116 -4.3706,-1.8393 -5.703,-1.8393 -2.1954,0 -3.6394,-0.4431 -10.0166,-3.0741 -1.1,-0.4539 -4.025,-1.4804 -6.5,-2.2811 -2.475,-0.8008 -6.3,-2.1196 -8.5,-2.9306 -2.2,-0.811 -6.025,-2.0597 -8.5,-2.775 -2.475,-0.7152 -6.3,-2.0604 -8.5,-2.9892 -2.2,-0.9288 -6.025,-2.2624 -8.5,-2.9636 -2.475,-0.7011 -7.425,-2.1476 -11,-3.2144 -3.575,-1.0667 -7.8819,-2.3518 -9.571,-2.8558 -1.689,-0.5039 -4.25,-0.9162 -5.691,-0.9162 -1.441,0 -2.8981,-0.45 -3.238,-1 -0.3399,-0.55 -1.6899,-1 -3,-1 -1.3101,0 -2.6601,-0.45 -3,-1 -0.3399,-0.55 -1.572,-1 -2.738,-1 -1.166,0 -3.502,-0.4174 -5.191,-0.9275 -1.6891,-0.5101 -6.446,-1.9207 -10.571,-3.1346 -4.125,-1.214 -10.65,-3.3155 -14.5,-4.67 -3.85,-1.3546 -8.35,-2.8174 -10,-3.2507 -1.65,-0.4333 -6.2378,-2.1895 -10.1952,-3.9025 -3.9573,-1.7131 -8.2323,-3.1174 -9.5,-3.1206 -1.2676,0 -15.8005,-5.4033 -32.2952,-12 -16.4947,-6.5968 -30.7762,-11.9941 -31.7366,-11.9941 -1.0616,0 -2.3395,1.42 -3.2596,3.6221 -2.1212,5.0768 -1.9098,6.2578 1.2366,6.909 6.56,1.3576 25.7273,7.8762 36.75,12.4981 1.1,0.4612 3.8,1.3759 6,2.0326 2.2,0.6567 5.0337,1.5864 6.2971,2.0661 1.2633,0.4797 3.2564,0.8721 4.429,0.8721 1.1725,0 3.5139,0.4155 5.2029,0.9233 1.6891,0.5078 5.546,1.4409 8.571,2.0735 3.025,0.6326 6.625,1.5149 8,1.9607 1.375,0.4458 4.525,1.3938 7,2.1067 2.475,0.7128 4.95,1.6117 5.5,1.9974 0.55,0.3858 2.575,0.9476 4.5,1.2485 5.1889,0.8112 9.2502,1.7414 11.5,2.634 5.1497,2.0431 15.4721,5.0559 17.3223,5.0559 1.1328,0 2.3378,0.45 2.6777,1 0.3399,0.55 2.1399,1 4,1 1.8601,0 3.6601,0.45 4,1 0.3399,0.55 1.4976,1 2.5726,1 1.075,0 2.7359,0.4358 3.691,0.9685 0.955,0.5327 3.7614,1.6346 6.2364,2.4487 2.475,0.8142 10.35,3.5595 17.5,6.1007 7.15,2.5413 17.05,5.8794 22,7.4181 4.95,1.5387 13.5,4.4276 19,6.4198 5.5,1.9922 11.2109,3.6271 12.691,3.6332 1.48,0.01 2.9691,0.461 3.309,1.011 0.3399,0.55 1.7226,1 3.0726,1 1.35,0 3.2359,0.3948 4.191,0.8772 0.955,0.4825 3.5364,1.4123 5.7364,2.0661 2.2,0.6539 4.9,1.5468 6,1.9842 1.1,0.4375 3.8,1.3635 6,2.058 2.2,0.6944 6.7,2.4977 10,4.0072 6.9067,3.1594 13.1091,5.0073 16.807,5.0073 1.4162,0 2.8531,0.45 3.193,1 0.3399,0.55 1.7226,1 3.0726,1 1.35,0 3.2359,0.3895 4.191,0.8656 0.955,0.4761 9.1614,3.3653 18.2364,6.4203 15.4865,5.2135 38.8932,13.7515 52.5,19.1504 3.3,1.3093 10.95,4.1809 17,6.3812 14.9575,5.4398 29.6788,10.8909 37.5,13.8858 3.575,1.3689 8.75,3.3015 11.5,4.2947 2.75,0.9933 9.725,3.6092 15.5,5.8132 5.775,2.204 16.8,6.3243 24.5,9.1563 7.7,2.832 14.9,5.551 16,6.0424 4.005,1.7888 5.6108,0.7009 8.1331,-5.5099 z m 9.3566,-37.75 c 0.8159,-1.939 2.4477,-7.6024 8.1396,-28.25 0.6064,-2.2 1.4483,-5.125 1.8707,-6.5 1.0438,-3.3976 2.4405,-8.7002 5.3274,-20.2257 1.7781,-7.0984 2.1304,-9.9646 1.3044,-10.6103 -1.4161,-1.1068 -117.2364,-51.7015 -147.6318,-64.4911 -44.6733,-18.7974 -83.5381,-34.9329 -85.3862,-35.4498 -1.8277,-0.5112 -1.8631,0.3064 -1.1419,26.3747 0.4094,14.7962 1.0332,38.1462 1.3862,51.889 l 0.6419,24.9867 5,2.3883 c 4.4124,2.1075 24.2749,8.4071 45,14.2721 3.85,1.0895 8.35,2.3792 10,2.8661 1.65,0.4869 6.15,1.7852 10,2.8853 3.85,1.1 13.3,3.8629 21,6.1396 15.0081,4.4377 18.0475,5.3213 23.5,6.8322 8.1229,2.2508 29.0884,8.4546 36.5,10.8005 6.8321,2.1625 42.2568,12.6945 56.5,16.7978 6.4141,1.8478 6.9346,1.8019 7.9897,-0.7054 z m -572.3274,-2 c -0.2774,-0.6875 -0.5044,-0.125 -0.5044,1.25 0,1.375 0.227,1.9375 0.5044,1.25 0.2774,-0.6875 0.2774,-1.8125 0,-2.5 z m 802.9395,-4.5 c -0.3129,-3.7125 -1.0431,-12.375 -1.6225,-19.25 -1.1181,-13.2647 -2.7176,-39.7668 -3.5783,-59.2919 l -0.5199,-11.7919 -4.1906,-1.9405 c -7.6532,-3.5439 -49.8154,-20.9757 -50.7339,-20.9757 -0.4967,0 -2.8276,-0.8805 -5.1798,-1.9567 -4.9308,-2.256 -25.8415,-10.0048 -43.2768,-16.0369 -6.6,-2.2835 -14.4326,-5.0389 -17.4058,-6.1233 -2.9731,-1.0844 -5.7605,-1.6142 -6.1941,-1.1773 -0.4336,0.4368 -1.7375,4.6192 -2.8975,9.2942 -1.1599,4.675 -2.517,10.075 -3.0156,12 -0.9864,3.8076 -3.6536,14.4177 -5.0277,20 -0.4738,1.925 -1.3156,5.525 -1.8707,8 -0.555,2.475 -2.5266,10.47 -4.3813,17.7666 -2.3483,9.2381 -3.0436,13.5173 -2.2898,14.0922 0.5954,0.4541 17.9575,7.87 38.5825,16.4797 20.625,8.6097 54.375,22.8173 75,31.5724 20.625,8.7551 37.8759,15.9568 38.3353,16.0037 0.4595,0.047 0.5794,-2.9521 0.2665,-6.6646 z m -800.9187,-0.4375 c -0.3192,-0.7977 -0.5562,-0.5608 -0.6042,0.6042 -0.043,1.0541 0.193,1.6448 0.5253,1.3125 0.3323,-0.3323 0.3678,-1.1948 0.079,-1.9167 z m 4,-11 c -0.3192,-0.7977 -0.5562,-0.5608 -0.6042,0.6042 -0.043,1.0541 0.193,1.6448 0.5253,1.3125 0.3323,-0.3323 0.3678,-1.1948 0.079,-1.9167 z m 7.2869,-12.5541 c 2.3035,-4.8171 5.9526,-12.2809 8.1091,-16.5862 2.1565,-4.3053 3.9209,-8.6028 3.9209,-9.55 0,-0.9472 0.3798,-2.1497 0.8441,-2.6722 0.4642,-0.5225 1.8994,-3.65 3.1894,-6.95 1.2899,-3.3 3.16,-7.4762 4.1559,-9.2804 0.9958,-1.8042 1.8106,-3.9479 1.8106,-4.7636 0,-0.8157 0.414,-2.2645 0.9201,-3.2196 0.506,-0.955 1.8999,-4.4364 3.0975,-7.7364 1.1975,-3.3 2.6437,-7.125 3.2137,-8.5 0.57,-1.375 1.4261,-3.5125 1.9025,-4.75 1.6968,-4.4076 2.6945,-6.8124 4.7665,-11.4891 1.1549,-2.6065 2.0997,-5.1249 2.0997,-5.5964 0,-0.4715 0.6405,-2.1639 1.4233,-3.7609 0.7828,-1.597 5.9897,-13.6059 11.5707,-26.6865 5.5811,-13.0806 11.4656,-26.2888 13.0767,-29.3516 1.6111,-3.0627 2.9293,-6.4724 2.9293,-7.5771 0,-2.0577 15.5647,-39.5243 17.1316,-41.2384 0.4776,-0.5225 0.8684,-1.5237 0.8684,-2.225 0,-0.7012 1.2707,-4.0987 2.8238,-7.55 5.853,-13.0067 5.8164,-12.8382 3.2465,-14.9192 -1.2605,-1.0207 -2.8763,-1.8558 -3.5907,-1.8558 -3.2535,0 -18.2078,34.6031 -32.4123,75 -3.3844,9.625 -7.0341,19.6975 -8.1104,22.3834 -1.0763,2.6858 -1.9569,5.4112 -1.9569,6.0565 0,0.6453 -2.7,7.8723 -6,16.0601 -3.3,8.1878 -6,15.2716 -6,15.7418 0,0.4701 -0.9,2.7176 -2,4.9943 -1.1,2.2768 -2,4.5099 -2,4.9626 0,0.4527 -0.8543,2.7307 -1.8985,5.0622 -1.0442,2.3315 -4.2623,10.5391 -7.1514,18.2391 -2.889,7.7 -6.7597,17.2644 -8.6014,21.2542 -1.8418,3.9899 -3.3487,7.7085 -3.3487,8.2636 0,0.5551 -0.4287,1.7907 -0.9528,2.7458 -0.524,0.955 -1.9264,4.6614 -3.1164,8.2364 -1.1901,3.575 -2.5613,6.9275 -3.0473,7.45 -0.4859,0.5225 -0.8835,1.895 -0.8835,3.05 0,1.155 -0.406,2.5275 -0.9022,3.05 -0.4961,0.5225 -1.5847,2.975 -2.4191,5.45 -0.8343,2.475 -1.8548,5.3613 -2.2678,6.414 -0.4907,1.251 -0.3833,1.687 0.3101,1.2584 0.5835,-0.3606 2.9455,-4.5969 5.249,-9.414 z m 811.5556,-18.7584 c -0.3152,-7.7 -0.9872,-33.575 -1.4935,-57.5 -0.9919,-46.8752 -1.5645,-58.3842 -3.0598,-61.5 -0.5279,-1.1 -1.1245,-11.9 -1.3258,-24 -0.2032,-12.2135 -0.9106,-24.4466 -1.5903,-27.5 -2.6841,-12.0578 -4.6248,-49.1119 -5.5779,-106.5 -0.2698,-16.2437 -0.921,-29.8797 -1.4805,-31 -0.5779,-1.157 -1.1867,-16.3303 -1.4445,-36 -0.4984,-38.0387 -1.2376,-53.5438 -2.6196,-54.95 -0.5135,-0.5225 -0.9337,-1.895 -0.9337,-3.05 0,-1.155 -0.4337,-2.5337 -0.9637,-3.0637 -1.8384,-1.8384 -2.5803,-68.313 -1.5199,-136.1863 0.428,-27.3938 0.2797,-34.2418 -0.7407,-34.209 -2.0012,0.064 -6.0157,10.1278 -10.7542,26.959 -0.6968,2.475 -1.8355,6.525 -2.5304,9 -3.0261,10.7778 -3.7317,15.9101 -3.0414,22.1234 0.3896,3.5071 1.0815,14.0266 1.5375,23.3766 0.7316,15.0013 1.7754,34.3379 3.4548,64 0.6786,11.9848 2.2987,51.1452 3.62,87.5 2.0924,57.5734 4.1808,91.4028 5.9261,96 0.7309,1.925 1.7099,10.25 2.1757,18.5 2.1829,38.6674 2.841,48.8058 3.8617,59.5 0.6038,6.325 1.52,16.7875 2.0361,23.25 0.5161,6.4625 1.3688,17.0375 1.8948,23.5 2.2552,27.7091 4.4325,54.9387 6.017,75.25 1.7906,22.9536 2.8764,34.2207 3.9993,41.5 2.0065,13.0066 3.1125,20.9726 3.8185,27.5 l 0.7029,6.5 0.3022,-7.5 c 0.1663,-4.125 0.044,-13.8 -0.2707,-21.5 z m -194.5256,-26.859 c 0,-1.2326 0.4085,-2.6685 0.9078,-3.191 0.4993,-0.5225 1.1215,-3.2 1.3827,-5.95 0.2612,-2.75 1.009,-6.8 1.6618,-9 0.6528,-2.2 1.4144,-5.125 1.6926,-6.5 0.2782,-1.375 0.8912,-3.4 1.3623,-4.5 0.4711,-1.1 1.0849,-3.35 1.3641,-5 0.9226,-5.4537 1.7682,-8.9741 2.642,-11 0.4745,-1.1 1.0968,-3.575 1.383,-5.5 0.5114,-3.4396 1.862,-10.5884 3.1173,-16.5 0.3504,-1.65 1.0252,-3.9 1.4997,-5 0.4745,-1.1 1.0968,-3.575 1.383,-5.5 0.9029,-6.0729 2.3959,-13.3572 3.5868,-17.5 1.0799,-3.7564 1.9392,-7.1297 3.9485,-15.5 0.8319,-3.4652 2.4791,-8.8837 6.2322,-20.5 1.0662,-3.3 2.8452,-9.6 3.9532,-14 1.1081,-4.4 2.9274,-11.6 4.0429,-16 1.1156,-4.4 2.4243,-10.475 2.9082,-13.5 0.8714,-5.4476 2.0432,-10.7684 4.074,-18.5 0.5779,-2.2 1.254,-6.25 1.5025,-9 0.2485,-2.75 0.8523,-5.9 1.3416,-7 0.4894,-1.1 1.1239,-3.575 1.4101,-5.5 0.2862,-1.925 1.012,-5.975 1.6129,-9 0.6008,-3.025 1.3407,-7.3 1.644,-9.5 0.3034,-2.2 0.9556,-4.4275 1.4492,-4.95 0.4937,-0.5225 0.8976,-2.4084 0.8976,-4.191 0,-1.7825 0.45,-3.5191 1,-3.859 0.55,-0.3399 1,-2.1399 1,-4 0,-1.8601 0.4003,-3.6294 0.8895,-3.9317 0.4892,-0.3024 1.1317,-2.0164 1.4278,-3.809 0.296,-1.7926 1.055,-5.2843 1.6866,-7.7593 0.6317,-2.475 1.535,-6.975 2.0073,-10 2.0068,-12.8513 4.3694,-22.4057 6.2505,-25.2766 0.8041,-1.2273 1.7273,-3.8046 2.0515,-5.7274 0.3242,-1.9228 1.0138,-5.971 1.5325,-8.996 0.8735,-5.0938 3.3915,-15.0718 9.8314,-38.9585 1.4025,-5.2022 3.1389,-10.3772 3.8585,-11.5 0.7197,-1.1228 1.624,-4.2915 2.0096,-7.0415 0.3856,-2.75 1.2355,-6.35 1.8886,-8 0.6532,-1.65 1.7953,-5.7 2.5379,-9 0.7427,-3.3 1.7278,-6.4275 2.1893,-6.95 0.4614,-0.5225 0.839,-1.8789 0.839,-3.0141 0,-1.1353 0.9,-4.5264 2,-7.5359 1.1,-3.0095 2,-6.994 2,-8.8546 0,-2.8655 2.1147,-10.7631 4.9926,-18.6454 1.9188,-5.2552 3.0074,-9.3319 3.0074,-11.262 0,-1.166 0.45,-2.3981 1,-2.738 0.55,-0.3399 1,-1.9149 1,-3.5 0,-1.5851 0.45,-3.1601 1,-3.5 0.55,-0.3399 1,-1.7226 1,-3.0726 0,-1.35 0.4095,-3.2359 0.91,-4.191 1.9136,-3.6516 5.09,-12.5822 5.09,-14.3107 0,-0.9942 0.45,-2.0858 1,-2.4257 0.55,-0.3399 1,-1.6953 1,-3.012 0,-2.2664 0.5407,-3.9315 3.5681,-10.988 1.4614,-3.4062 3.6402,-10.1036 5.2052,-16 3.83,-14.43 6.9375,-24.7696 8.7358,-29.0662 0.7058,-1.6864 2.2569,-6.6364 3.4468,-11 2.6169,-9.5962 9.7474,-31.2598 11.0824,-33.6702 0.5289,-0.9551 0.9617,-2.616 0.9617,-3.691 0,-1.075 0.45,-2.2327 1,-2.5726 0.55,-0.3399 1,-1.9149 1,-3.5 0,-1.5851 0.3609,-3.105 0.802,-3.3776 0.4411,-0.2726 1.4302,-2.8027 2.198,-5.6224 0.7678,-2.8197 1.7569,-5.3498 2.198,-5.6224 0.4411,-0.2726 0.802,-1.5675 0.802,-2.8776 0,-1.3101 0.45,-2.6601 1,-3 0.55,-0.3399 1,-1.6899 1,-3 0,-1.3101 0.45,-2.6601 1,-3 0.55,-0.3399 1,-1.7226 1,-3.0726 0,-1.35 0.4151,-3.2359 0.9224,-4.191 0.5073,-0.955 2.3914,-5.5614 4.187,-10.2364 1.7956,-4.675 4.0805,-9.9762 5.0777,-11.7804 0.9971,-1.8042 1.8129,-4.0767 1.8129,-5.05 0,-0.9733 0.3581,-2.1971 0.7959,-2.7196 0.4377,-0.5225 1.3674,-2.75 2.0661,-4.95 1.449,-4.563 2.0948,-6.2176 4.8787,-12.5 1.0968,-2.475 2.9917,-6.7792 4.211,-9.565 1.2193,-2.7857 2.0664,-6.3857 1.8826,-8 -0.3283,-2.8819 -0.4337,-2.931 -5.8343,-2.7138 -7.6908,0.3094 -20.0751,1.789 -22.6998,2.7121 -2.9765,1.0469 -9.9443,17.6422 -11.7844,28.0667 -1.5315,8.6768 -2.4376,13.1884 -3.5147,17.5 -0.6183,2.475 -1.3521,5.85 -1.6308,7.5 -0.2786,1.65 -0.898,3.9 -1.3764,5 -0.8686,1.9972 -1.598,6.0072 -2.6372,14.5 -0.3028,2.475 -0.957,4.9275 -1.4537,5.45 -0.4966,0.5225 -0.903,3.3084 -0.903,6.191 0,2.8825 -0.45,5.5191 -1,5.859 -0.55,0.3399 -1,2.022 -1,3.738 0,2.8477 -1.0361,7.0224 -3.0433,12.262 -0.4214,1.1 -2.2019,5.825 -3.9567,10.5 -1.7548,4.675 -3.5464,9.4 -3.9813,10.5 -0.4349,1.1 -1.3389,4.025 -2.0089,6.5 -0.6699,2.475 -1.6212,5.5337 -2.1139,6.7971 -0.4928,1.2633 -0.8959,3.5993 -0.8959,5.1909 0,1.5917 -0.4003,3.1414 -0.8895,3.4437 -0.4892,0.3024 -1.1393,2.0164 -1.4445,3.809 -0.5378,3.1582 -1.7142,8.7194 -3.7039,17.5093 -0.5292,2.3375 -1.3875,6.1625 -1.9074,8.5 -0.8918,4.0095 -1.5889,6.8876 -4.1173,17 -0.5845,2.3375 -1.435,6.275 -1.8901,8.75 -0.4551,2.475 -1.3385,6.075 -1.9631,8 -0.6246,1.925 -1.5472,5.975 -2.0501,9 -1.5929,9.5795 -2.8186,14.4003 -6.8933,27.1109 -3.9411,12.294 -6.8929,22.2414 -9.1662,30.8891 -0.6506,2.475 -1.586,5.5337 -2.0787,6.7971 -0.4928,1.2633 -0.8959,3.1819 -0.8959,4.2635 0,1.0816 -0.4122,2.7479 -0.9159,3.703 -0.5038,0.955 -1.6779,3.5364 -2.6091,5.7364 -0.9312,2.2 -2.319,5.3066 -3.0841,6.9036 -0.765,1.597 -1.3909,3.708 -1.3909,4.691 0,0.9831 -0.45,2.0655 -1,2.4054 -0.55,0.3399 -1,1.9149 -1,3.5 0,1.5851 -0.45,3.1601 -1,3.5 -0.55,0.3399 -1,2.3649 -1,4.5 0,2.1351 -0.45,4.1601 -1,4.5 -0.55,0.3399 -1,2.3649 -1,4.5 0,2.1351 -0.4025,4.1307 -0.8944,4.4347 -0.4919,0.304 -1.1378,2.2431 -1.4353,4.309 -0.2975,2.066 -1.0407,6.0063 -1.6515,8.7563 -0.6109,2.75 -1.5118,7.025 -2.0021,9.5 -0.4903,2.475 -1.3973,6.525 -2.0156,9 -0.6183,2.475 -1.3734,5.743 -1.6779,7.2622 -0.3046,1.5193 -0.9519,3.0083 -1.4385,3.3091 -0.4866,0.3007 -0.8847,1.4263 -0.8847,2.5013 0,1.075 -0.4061,2.7359 -0.9025,3.691 -0.4964,0.955 -1.4486,3.7614 -2.116,6.2364 -0.6674,2.475 -1.5631,5.625 -1.9904,7 -0.4274,1.375 -1.3337,5.2 -2.0141,8.5 -1.0879,5.2767 -2.8843,12.651 -5.9683,24.5 -0.501,1.925 -1.3483,5.525 -1.8829,8 -0.5346,2.475 -2.1316,7.9543 -3.5489,12.1763 -1.4173,4.222 -2.5769,8.8079 -2.5769,10.191 0,1.3831 -0.4003,2.7621 -0.8895,3.0644 -0.4892,0.3024 -1.1393,2.0164 -1.4445,3.809 -1.1272,6.6197 -4.8968,22.4826 -7.666,32.2593 -2.6119,9.2214 -3.2846,12.3842 -5.9549,28 -1.1856,6.9328 -2.5101,13.3124 -3.9447,19 -2.3967,9.5015 -3.2838,13.2957 -4.2087,18 -1.315,6.6888 -2.8395,15.9856 -3.5257,21.5 -0.3079,2.475 -0.9663,4.9275 -1.463,5.45 -0.4966,0.5225 -0.903,1.8406 -0.903,2.929 0,1.8758 -1.3365,6.7279 -3.0632,11.121 -0.4324,1.1 -1.0666,3.35 -1.4093,5 -0.3427,1.65 -0.8605,4.125 -1.1506,5.5 -0.2902,1.375 -0.8924,3.4 -1.3382,4.5 -0.4459,1.1 -1.3586,4.025 -2.0281,6.5 -0.6696,2.475 -1.8126,6.3 -2.5401,8.5 -0.7275,2.2 -1.6369,6.475 -2.0209,9.5 -0.384,3.025 -1.1357,6.625 -1.6706,8 -0.5348,1.375 -1.353,4.75 -1.8183,7.5 -0.7863,4.6481 -1.4453,7.5509 -3.9159,17.25 -2.4929,9.7863 -2.8801,8.7036 4.1157,11.5075 3.4867,1.3975 6.677,2.3347 7.0895,2.0827 0.4125,-0.252 0.75,-1.4667 0.75,-2.6992 z m -314.3449,-12.891 c -0.2884,-8.3875 -1.0141,-20.2 -1.6126,-26.25 -0.5985,-6.05 -1.4778,-15.275 -1.954,-20.5 -0.4761,-5.225 -1.4318,-11.3 -2.1237,-13.5 -0.6919,-2.2 -1.4313,-7.6 -1.6432,-12 -0.2119,-4.4 -0.8125,-8.9 -1.3346,-10 -0.5221,-1.1 -1.0703,-4.4693 -1.2181,-7.4873 -0.2648,-5.4045 -0.3218,-5.4977 -3.7689,-6.1728 -1.925,-0.3771 -6.875,-1.6501 -11,-2.829 -4.125,-1.1789 -10.65,-2.9929 -14.5,-4.031 -7.3963,-1.9944 -30.6243,-9.1218 -51.5,-15.8025 -22.7326,-7.275 -74.797,-26.777 -87.6891,-32.8462 -3.6557,-1.721 -6.2204,-1.4908 -7.4519,0.6688 -0.8455,1.4826 -24.0864,55.7596 -32.5072,75.9175 -2.3935,5.7296 -4.3518,10.9795 -4.3518,11.6665 0,1.2112 56.5421,24.19 83.5,33.9345 17.5371,6.3391 48.7814,16.8914 72.5,24.4859 10.725,3.434 21.975,7.0503 25,8.0362 3.025,0.9859 10.225,3.2184 16,4.9612 5.775,1.7427 12.75,3.9854 15.5,4.9837 2.75,0.9983 6.2779,1.8599 7.8397,1.9148 l 2.8398,0.1 z m 282.8026,-10.25 c 1.4538,-6.05 3.5296,-14.6 4.6128,-19 1.0832,-4.4 2.5923,-11.15 3.3535,-15 0.7612,-3.85 2.7756,-13.4581 4.4763,-21.3514 1.7008,-7.8933 2.8916,-14.6763 2.6462,-15.0734 -0.2454,-0.3971 -2.3813,-1.2983 -4.7464,-2.0027 -2.365,-0.7044 -5.3338,-1.6839 -6.5972,-2.1766 -4.2928,-1.6743 -6.5164,-0.9024 -13.9844,4.8541 -4.1027,3.1625 -8.6089,6.5114 -10.0138,7.4421 -4.6786,3.0992 -17.3076,6.6276 -28.1987,7.8784 -4.1283,0.4742 -12.231,1.4374 -18.006,2.1405 -19.9364,2.4274 -77.7559,1.2403 -87.7375,-1.8013 -5.5121,-1.6796 9.3941,5.0606 62.7375,28.3682 80.367,35.1151 87.397,38.0942 88.1572,37.3583 0.3614,-0.3499 1.8467,-5.5862 3.3005,-11.6362 z m -264.1024,-53.7909 -0.6129,-20.791 -2.8892,-1.494 c -4.5253,-2.3401 -4.6272,-1.0124 -1.885,24.5759 0.56,5.225 1.4545,14.225 1.988,20 0.5334,5.775 1.3067,12.75 1.7185,15.5 1.3279,8.8689 2.3672,-14.5012 1.6806,-37.7909 z m 460.0889,24.3811 c 0.954,-1.5436 -0.5192,-3.9835 -2.7866,-4.615 -2.8675,-0.7986 -7.5274,-2.6675 -15.8967,-6.3755 -2.6065,-1.1549 -5.329,-2.0997 -6.05,-2.0997 -0.721,0 -1.7384,-0.3798 -2.2609,-0.8441 -1.4006,-1.2444 -11.1405,-4.8616 -17.45,-6.4805 -4.4089,-1.1313 -19.4958,-6.8141 -33.5,-12.6185 -1.1,-0.4559 -4.025,-1.3815 -6.5,-2.0569 -2.475,-0.6754 -5.4,-1.5849 -6.5,-2.0213 -2.4629,-0.9769 -9.8045,-2.718 -14.5,-3.4388 l -3.5,-0.5373 4.3686,2.0081 c 9.1805,4.2199 10.8148,4.885 17.1314,6.9725 8.0675,2.6661 9.4304,3.2055 14.8445,5.8748 2.3895,1.1781 4.7407,2.142 5.225,2.142 0.4842,0 3.828,1.35 7.4305,3 3.6025,1.65 6.9949,3 7.5386,3 0.5437,0 1.7699,0.4061 2.725,0.9025 0.955,0.4964 3.7614,1.4747 6.2364,2.1739 2.475,0.6993 4.9275,1.6431 5.45,2.0975 0.5225,0.4543 1.7661,0.8261 2.7636,0.8261 0.9974,0 2.5949,0.4113 3.55,0.914 2.9909,1.5745 28.6756,11.847 29.9274,11.9695 0.655,0.064 1.444,-0.2929 1.7532,-0.7933 z m -5.0806,-38.8402 c -0.2651,-4.2625 -0.7084,-8.65 -0.9851,-9.75 -0.47,-1.869 -1.2585,-9.0656 -3.3965,-31 -0.4825,-4.95 -1.3624,-13.95 -1.9553,-20 -1.8425,-18.7993 -2.8468,-30.4809 -3.8688,-45 -0.542,-7.7 -1.2376,-14.675 -1.5457,-15.5 -0.4588,-1.2284 -3.6122,-47.9463 -3.6122,-53.5154 0,-1.387 -0.4096,-1.3137 -2.75,0.4922 -6.0698,4.6835 -35.1736,34.3666 -46.5957,47.5232 -6.6849,7.7 -14.8965,16.925 -18.2482,20.5 -3.3516,3.575 -6.4321,7.4 -6.8455,8.5 -1.1294,3.0054 -17.6384,69.7556 -17.3287,70.0645 1.5032,1.4992 58.7782,21.0256 86.2681,29.4109 9.35,2.852 17.45,5.3388 18,5.5261 3.088,1.0518 3.3404,0.4127 2.8636,-7.2515 z m -263.8636,-10.0714 c 4.4,-0.6089 11.6,-2.0628 16,-3.2309 4.4,-1.168 9.8,-2.4737 12,-2.9014 4.4842,-0.8719 6.152,-1.438 12.2391,-4.1545 2.3315,-1.0405 4.484,-1.8918 4.7833,-1.8918 0.8197,0 20.6776,-13.51 22.9935,-15.6431 1.1087,-1.0213 4.7087,-4.1065 8,-6.8559 3.2912,-2.7495 11.4966,-10.4185 18.2341,-17.0423 12.1828,-11.9772 12.25,-12.0688 12.25,-16.692 0,-2.5568 -0.448,-4.9256 -0.9957,-5.264 -0.5476,-0.3385 -3.3601,0.9498 -6.25,2.8627 -6.4085,4.2421 -16.1185,9.8508 -24.5597,14.1864 -3.468,1.7812 -7.068,3.874 -8,4.6507 -1.5298,1.275 -12.6799,6.8438 -17.6946,8.8375 -4.6843,1.8623 -8.9823,2.96 -11.5902,2.96 -1.5355,0 -3.0288,0.3835 -3.3185,0.8523 -0.8634,1.397 -13.4184,1.9409 -23.5913,1.022 -12.9875,-1.1733 -28.8034,-2.7701 -39,-3.9375 -4.675,-0.5353 -15.475,-1.3675 -24,-1.8494 -8.525,-0.4819 -17.525,-1.408 -20,-2.058 -2.475,-0.65 -6.975,-1.5822 -10,-2.0717 -14.3867,-2.3276 -20.8333,-3.5185 -33,-6.0962 -8.481,-1.7967 -14.5071,-2.8736 -22,-3.9315 -12.7407,-1.7987 -24.6144,-3.703 -36.5,-5.854 -2.75,-0.4976 -7.7,-1.3879 -11,-1.9784 -3.3,-0.5905 -8.025,-1.5344 -10.5,-2.0976 -2.475,-0.5632 -6.975,-1.4618 -10,-1.9969 -36.3896,-6.4365 -99.8867,-24.9528 -128.5,-37.4717 -3.321,-1.453 -27.1546,-10.6842 -35,-13.5561 -15.9384,-5.8345 -32.5854,-11.3342 -49.8405,-16.4657 -4.8622,-1.446 -12.3927,-4.365 -16.7344,-6.4866 -4.3416,-2.1217 -9.5884,-4.3992 -11.6595,-5.0611 -2.0711,-0.6619 -4.1931,-1.5991 -4.7156,-2.0827 -1.5219,-1.4084 -4.5605,-1.0155 -5.2086,0.6736 -0.8687,2.2636 9.8694,22.8508 15.7984,30.2889 3.1249,3.9203 6.4497,6.9243 8.7076,7.8675 6.1892,2.5853 35.5509,17.2891 36.5809,18.3191 0.5344,0.5344 1.5616,0.9717 2.2826,0.9717 0.721,0 3.2185,0.8508 5.55,1.8906 2.3315,1.0398 7.3891,3.1026 11.2391,4.5841 3.85,1.4814 8.35,3.288 10,4.0145 23.0446,10.147 76.7482,28.7678 116.5,40.3943 20.9432,6.1253 26.3784,7.6245 50,13.7914 16.45,4.2945 32.6558,8.2415 46.5,11.3251 2.2,0.49 7.825,1.7888 12.5,2.8862 4.675,1.0974 10.975,2.5129 14,3.1456 3.025,0.6327 7.075,1.5258 9,1.9847 1.925,0.4589 6.2,1.3561 9.5,1.9938 3.3,0.6377 6.9,1.376 8,1.6405 1.1,0.2646 4.7,0.8708 8,1.3472 3.3,0.4764 9.375,1.3581 13.5,1.9594 4.125,0.6013 12.1351,1.4794 17.8001,1.9514 5.6651,0.4719 10.6016,1.1595 10.97,1.528 1.0128,1.0127 41.5923,0.01 50.7299,-1.2582 z m 41.5,-70.9809 c 3.575,-0.5551 8.525,-1.3211 11,-1.7022 6.3395,-0.976 21.3936,-6.0916 28.5,-9.6847 3.3,-1.6686 12.0481,-7.4984 19.4402,-12.9552 14.5392,-10.7327 16.013,-12.7119 16.0447,-21.5466 0.01,-2.305 0.4651,-4.4691 1.0151,-4.809 0.55,-0.3399 1,-2.1399 1,-4 0,-1.8601 0.4025,-3.6307 0.8944,-3.9347 0.4919,-0.304 1.1496,-2.2431 1.4616,-4.309 0.312,-2.066 0.8374,-5.5563 1.1676,-7.7563 0.3302,-2.2 0.9946,-4.9 1.4764,-6 0.4818,-1.1 1.1039,-3.575 1.3825,-5.5 0.6504,-4.4945 2.1598,-11.4157 3.5985,-16.5 0.6225,-2.2 1.5114,-5.35 1.9755,-7 0.464,-1.65 2.0136,-6.5945 3.4436,-10.9879 1.4299,-4.3933 2.6027,-9.3433 2.6061,-11 0,-1.6566 0.6048,-4.1593 1.3366,-5.5614 0.7317,-1.4022 1.5913,-4.1569 1.9101,-6.1217 0.3188,-1.9648 4.0193,-14.3176 8.2233,-27.4507 4.204,-13.133 8.0971,-25.6783 8.6515,-27.8783 0.5543,-2.2 1.4273,-5.3819 1.9401,-7.071 0.5127,-1.689 0.9422,-3.939 0.9544,-5 0.012,-1.0609 0.9023,-3.054 1.9778,-4.429 1.0755,-1.375 1.9655,-3.6475 1.9778,-5.05 0.012,-1.4025 0.5029,-3.0307 1.0904,-3.6182 0.5875,-0.5875 0.925,-2.8067 0.75,-4.9315 l -0.3182,-3.8633 -12.5,-4.2955 c -6.875,-2.3625 -15.2,-5.229 -18.5,-6.3699 -7.7958,-2.6954 -14.4151,-4.5148 -25,-6.8716 -3.7509,-0.8352 -6.7143,-1.5536 -16.5,-4 -2.2,-0.55 -5.9125,-1.4782 -8.25,-2.0626 -7.3859,-1.8468 -14.0712,-3.0644 -19.75,-3.5973 -3.025,-0.2838 -5.9275,-0.9265 -6.45,-1.4281 -0.5225,-0.5016 -1.8406,-0.912 -2.929,-0.912 -2.1322,0 -8.0389,-1.6988 -10.8574,-3.1228 -0.9551,-0.4824 -3.066,-0.8772 -4.691,-0.8772 -1.625,0 -3.2327,-0.45 -3.5726,-1 -0.3399,-0.55 -1.6945,-1 -3.0102,-1 -1.3157,0 -5.0017,-0.7292 -8.191,-1.6205 -3.1893,-0.8912 -8.0488,-1.9755 -10.7988,-2.4095 -2.75,-0.4339 -6.8,-1.3096 -9,-1.946 -2.2,-0.6363 -5.575,-1.5421 -7.5,-2.0129 -6.1656,-1.5077 -8.4541,-2.1594 -10.5,-2.9899 -1.1,-0.4465 -4.7,-1.3471 -8,-2.0014 -3.3,-0.6543 -6.9,-1.4222 -8,-1.7064 -1.1,-0.2843 -4.25,-0.8747 -7,-1.312 -2.75,-0.4374 -13.1,-2.9093 -23,-5.4931 -19.7407,-5.1521 -24.9927,-6.3678 -31,-7.1754 -2.2,-0.2958 -4.4275,-0.9417 -4.95,-1.4353 -0.5225,-0.4937 -1.9584,-0.8976 -3.191,-0.8976 -1.2325,0 -2.4884,-0.4003 -2.7907,-0.8895 -0.3024,-0.4892 -2.0164,-1.1393 -3.809,-1.4445 -1.7926,-0.3052 -5.5093,-1.0538 -8.2593,-1.6635 -2.75,-0.6097 -7.25,-1.494 -10,-1.965 -2.75,-0.4711 -6.8,-1.3847 -9,-2.0304 -5.6464,-1.657 -12.7916,-2.996 -21.5,-4.0288 -9.3309,-1.1067 -17.9892,-2.5173 -24.5,-3.9915 -2.75,-0.6226 -7.025,-1.3479 -9.5,-1.6116 -2.475,-0.2638 -5.4,-0.8909 -6.5,-1.3935 -1.1,-0.5026 -5.375,-1.1188 -9.5,-1.3693 -9.2009,-0.5588 -14.8404,-1.5451 -15.5683,-2.7229 -0.3023,-0.4892 -2.4582,-0.8895 -4.7907,-0.8895 -2.3326,0 -4.6685,-0.4085 -5.191,-0.9078 -1.4084,-1.3459 -10.0488,-2.1945 -27.6848,-2.7193 l -15.7347,-0.4681 -6.2653,4.2251 c -11.268,7.5989 -35.3374,29.6631 -41.8571,38.3701 -1.2355,1.65 -7.6861,8.625 -14.3346,15.5 -6.6486,6.875 -13.6243,14.3 -15.5017,16.5 -6.8569,8.0353 -35.1835,38.0479 -64.1529,67.9715 -7.4697,7.7157 -14.7371,15.8285 -16.15,18.0285 -1.4128,2.2 -5.1295,6.475 -8.2592,9.5 -5.2347,5.0595 -9.9696,11.4472 -14.6624,19.7804 -3.6385,6.4612 -2.1399,13.3445 4.1299,18.9698 2.9156,2.6159 18.0834,10.2498 20.3654,10.2498 0.8466,0 1.8175,0.45 2.1574,1 0.3399,0.55 1.449,1 2.4645,1 1.0156,0 3.5765,0.901 5.691,2.0022 10.4668,5.4512 57.9831,23.8184 84.3445,32.603 19.9387,6.6444 49.264,15.4876 61,18.3948 1.925,0.4769 5.075,1.314 7,1.8603 5.6588,1.606 27.1966,7.2369 31,8.1047 1.925,0.4392 12.95,3.0715 24.5,5.8496 23.3485,5.6158 49.1002,11.5578 57.5,13.2676 3.025,0.6157 7.3,1.5268 9.5,2.0247 5.3471,1.2099 12.8927,2.7744 19,3.9393 2.75,0.5245 7.25,1.4248 10,2.0007 2.75,0.5759 7.475,1.4492 10.5,1.9408 3.025,0.4915 7.975,1.3815 11,1.9777 3.025,0.5963 8.875,1.5545 13,2.1295 4.125,0.575 10.425,1.4617 14,1.9704 12.2904,1.7489 22.519,2.9342 32.2162,3.7332 5.3439,0.4403 10.0502,1.1346 10.4584,1.5428 1.0569,1.0569 57.5209,0.068 65.3254,-1.1436 z m 165.5512,-118.4495 c 6.5719,-6.7385 16.7863,-17.5429 22.6988,-24.0099 l 10.75,-11.758 v -21.2794 -21.2795 l -5.4387,-3.1238 c -8.2569,-4.7425 -12.0892,-5.9343 -13.9955,-4.3522 -0.8612,0.7147 -1.5658,2.1307 -1.5658,3.1466 0,1.016 -0.8084,3.3234 -1.7963,5.1276 -0.988,1.8042 -2.309,5.0804 -2.9356,7.2804 -2.8187,9.8974 -5.5282,19.2056 -6.2584,21.5 -0.4376,1.375 -1.313,5.2 -1.9453,8.5 -0.6323,3.3 -1.8055,8.0854 -2.607,10.6342 -0.8016,2.5488 -1.4574,5.7848 -1.4574,7.191 0,1.4062 -0.45,2.8349 -1,3.1748 -0.55,0.3399 -1,1.572 -1,2.738 0,2.2516 -1.6632,8.1093 -3.1228,10.9984 -0.4824,0.9551 -0.8772,2.616 -0.8772,3.691 0,1.075 -0.45,2.2327 -1,2.5726 -0.55,0.3399 -1,1.4976 -1,2.5726 0,1.075 -0.521,2.7888 -1.1578,3.8085 -1.1764,1.8836 -0.5901,5.1189 0.9276,5.1189 0.458,0 6.2096,-5.5133 12.7814,-12.2518 z m 35.0492,-115.4982 c -0.3215,-3.1625 -0.8792,-12.275 -1.2393,-20.25 -0.6668,-14.766 -0.9122,-15.1294 -3.3766,-5 -0.8316,3.4183 -2.0689,7.9368 -4.1074,15 -0.5555,1.925 -1.3786,5.2357 -1.8289,7.3572 l -0.8189,3.8572 5.1354,2.3352 c 2.8244,1.2844 5.5144,2.3611 5.9778,2.3928 0.4635,0.032 0.5795,-2.5299 0.2579,-5.6924 z m -67.8991,-24.5 c 0.5203,-0.6875 2.4239,-6.2 4.2301,-12.25 1.8062,-6.05 4.5855,-14.9971 6.1763,-19.8824 1.5908,-4.8854 2.8902,-9.6104 2.8876,-10.5 0,-1.3612 9.4093,-40.3032 14.6529,-60.6176 0.8517,-3.3 1.9298,-7.8 2.3956,-10 0.4657,-2.2 1.2994,-5.8 1.8526,-8 0.5532,-2.2 1.4713,-6.025 2.0402,-8.5 0.569,-2.475 1.5249,-6.3 2.1243,-8.5 0.5995,-2.2 1.4814,-5.8 1.9598,-8 0.4785,-2.2 1.3692,-6.025 1.9793,-8.5 0.6101,-2.475 1.5101,-6.3 2,-8.5 0.4899,-2.2 1.3899,-6.025 2,-8.5 0.6101,-2.475 1.5348,-6.4125 2.0547,-8.75 0.5199,-2.3375 1.3711,-6.1625 1.8916,-8.5 0.5204,-2.3375 1.2168,-5.6 1.5474,-7.25 0.3307,-1.65 1.0015,-4.575 1.4906,-6.5 0.4892,-1.925 1.3363,-5.525 1.8826,-8 2.8671,-12.991 6.3767,-27.985 9.1933,-39.2761 1.0669,-4.2769 1.9398,-8.4287 1.9398,-9.2262 0,-1.2442 -8.1292,-1.5199 -57.25,-1.9414 -98.6307,-0.8462 -165.2913,-4.2384 -226.25,-11.5131 -12.3521,-1.4741 -34.0247,-4.4056 -44.5,-6.0192 -3.025,-0.466 -7.525,-1.1279 -10,-1.4709 -2.475,-0.343 -6.75,-1.0628 -9.5,-1.5996 -34.4503,-6.7249 -39.9597,-8.0588 -55.8185,-13.5151 -5.5678,-1.9156 -10.6215,-3.2917 -11.2306,-3.0579 -1.7564,0.6739 -8.7907,13.1113 -18.0046,31.8337 l -8.5068,17.2858 0.4978,36 c 0.2738,19.8 0.9755,44.1 1.5592,54 0.5838,9.9 1.2908,32.6968 1.571,50.6595 0.3728,23.8958 0.8346,32.9038 1.721,33.5699 1.6113,1.2108 8.1432,3.0228 13.7115,3.8036 4.3396,0.6085 8.2537,1.2763 20,3.412 3.025,0.55 7.975,1.4385 11,1.9744 3.025,0.536 7.525,1.4313 10,1.9896 2.475,0.5583 6.525,1.4576 9,1.9984 2.475,0.5408 6.525,1.4605 9,2.0439 2.475,0.5834 6.75,1.5276 9.5,2.0982 5.1792,1.0746 10.931,2.3317 18.25,3.9884 2.3375,0.5292 6.1625,1.395 8.5,1.9242 5.7558,1.3029 12.1488,2.6393 18.75,3.9194 3.025,0.5866 10.9,2.2466 17.5,3.6889 6.6,1.4423 14.025,2.9838 16.5,3.4256 4.3032,0.7682 11.9001,2.252 20.5,4.004 2.2,0.4482 6.7,1.3482 10,2 3.3,0.6518 7.8,1.5518 10,2 2.2,0.4482 6.7,1.3482 10,2 3.3,0.6518 8.025,1.6141 10.5,2.1385 2.475,0.5243 6.525,1.362 9,1.8615 2.475,0.4995 6.525,1.3618 9,1.9161 7.0181,1.5721 13.0965,2.9198 18,3.9913 2.475,0.5408 6.525,1.4921 9,2.1141 2.475,0.622 7.0875,1.5466 10.25,2.0547 16.4461,2.6423 22.7822,3.7798 33.25,5.9696 2.75,0.5753 7.25,1.4898 10,2.0322 10.5096,2.0728 19.9383,4.0651 28,5.9165 2.2,0.5052 6.4194,1.37 9.3764,1.9217 2.957,0.5518 5.6195,1.2464 5.9167,1.5435 1.037,1.0371 5.9696,0.5303 6.9082,-0.7097 z m -392.2209,-85 c 0.3317,-2.3375 0.4717,-30.8 0.3113,-63.25 l -0.2917,-59 -3.3883,6.4955 c -1.8636,3.5725 -4.2031,8.8636 -5.1989,11.758 -0.9958,2.8943 -2.5086,6.259 -3.3617,7.477 -1.7871,2.5515 -2.1984,18.4917 -0.603,23.3703 1.0517,3.2158 2.5293,18.1248 4.0536,40.8992 0.5521,8.25 1.4471,17.25 1.9888,20 0.5417,2.75 1.4723,7.5875 2.0681,10.75 1.3203,7.0085 3.5338,7.7594 4.4218,1.5 z m -76.1259,1 c 2.9001,-4.6587 7.6455,-13.9126 7.6455,-14.9093 0,-0.5698 1.7388,-4.7046 3.8639,-9.1884 2.1251,-4.4838 4.4562,-10.1773 5.1801,-12.6523 0.724,-2.475 1.6041,-4.95 1.956,-5.5 0.3519,-0.55 1.2709,-3.025 2.0424,-5.5 0.7714,-2.475 3.1025,-7.8247 5.1801,-11.8881 2.0776,-4.0635 3.7775,-7.7627 3.7775,-8.2204 0,-0.4577 1.1736,-3.4331 2.6079,-6.6119 1.4344,-3.1788 3.2722,-7.3546 4.0841,-9.2796 0.8119,-1.925 1.8883,-4.2814 2.3921,-5.2364 0.5037,-0.9551 0.9159,-2.4237 0.9159,-3.2636 0,-0.8399 0.4371,-2.3085 0.9714,-3.2636 1.2384,-2.2137 10.1635,-22.4613 12.2261,-27.7364 7.2667,-18.5843 28.5513,-64.3037 40.6192,-87.25 2.7247,-5.1808 3.1833,-6.2975 3.1833,-7.7511 0,-2.1054 -5.8553,-5.491 -9.5,-5.4932 -2.6815,0 -3.2266,0.5553 -5.1351,5.2463 -1.1743,2.8864 -5.9468,14.698 -10.6055,26.248 -4.6588,11.55 -10.3355,24.9283 -12.6149,29.7296 -2.2795,4.8013 -4.1445,9.1267 -4.1445,9.6119 0,0.4852 -1.8,4.3815 -4,8.6585 -2.2,4.277 -4,8.1859 -4,8.6864 0,0.5006 -0.9,2.773 -2,5.0497 -1.1,2.2768 -2,4.6875 -2,5.3572 0,0.6697 -0.9639,3.1727 -2.142,5.5622 -2.8315,5.7429 -3.3381,7.0262 -6.2549,15.8445 -5.9318,17.9335 -11.295,32.2927 -24.0909,64.5 -3.1028,7.8096 -10.9201,31.7097 -12.511,38.25 -0.913,3.7532 0.3147,4.2749 2.3533,1 z m 52.1098,-4 c -0.2299,-37.0178 -0.7948,-57.797 -1.5019,-55.25 -0.4581,1.65 -1.2405,4.575 -1.7386,6.5 -0.8612,3.3281 -7.4531,18.7044 -15.0048,35 -6.9576,15.0139 -7.3974,16.27 -6.0056,17.153 0.7076,0.449 3.7616,0.8549 6.7866,0.902 3.025,0.047 6.4,0.483 7.5,0.9688 1.1,0.4858 3.8,0.7917 6,0.6798 l 4,-0.2036 z m 473.5357,-197.6614 c 3.575,-0.6602 10.55,-1.584 15.5,-2.0529 4.95,-0.469 11.25,-1.3729 14,-2.0088 2.75,-0.636 6.6903,-1.3997 8.7563,-1.6972 2.0659,-0.2975 4.005,-0.9434 4.309,-1.4353 0.304,-0.4919 1.855,-0.8944 3.4467,-0.8944 2.753,0 4.3807,-0.5091 11.6386,-3.6403 9.1743,-3.9579 25.909,-20.4981 32.7403,-32.3597 2.0588,-3.575 5.0552,-8.3 6.6585,-10.5 3.0098,-4.1298 8.7476,-15.3519 10.9929,-21.5 0.7031,-1.925 1.6561,-3.9275 2.118,-4.45 0.4618,-0.5225 0.8397,-1.5399 0.8397,-2.2609 0,-0.721 0.8894,-3.2185 1.9764,-5.55 2.1575,-4.6276 14.9298,-42.2022 17.9796,-52.8938 1.044,-3.6601 3.0221,-9.1119 4.3958,-12.115 1.3737,-3.0032 3.9389,-9.9086 5.7005,-15.3453 1.7616,-5.4368 3.5626,-10.785 4.0023,-11.885 0.4396,-1.1 1.0894,-4.25 1.4439,-7 0.671,-5.2059 1.8408,-12.7734 3.5551,-23 0.5532,-3.3 1.4962,-8.925 2.0955,-12.5 2.1056,-12.5599 1.4153,-42.3226 -1.1249,-48.5 -0.4523,-1.1 -1.2756,-3.35 -1.8295,-5 -0.554,-1.65 -1.3482,-3.9 -1.7649,-5 -0.4167,-1.1 -1.4714,-3.9074 -2.3437,-6.2387 -4.9559,-13.2441 -27.0774,-33.6411 -44.9734,-41.4673 -2.537,-1.1095 -8.5753,-3.3184 -13.4184,-4.9088 -4.8431,-1.5903 -10.0319,-3.5256 -11.5306,-4.3006 -4.1209,-2.131 -19.8881,-6.6441 -26.6637,-7.632 -3.3,-0.4811 -8.475,-1.3572 -11.5,-1.9469 -3.025,-0.5896 -7.975,-1.5028 -11,-2.0293 -3.025,-0.5266 -7.75,-1.4384 -10.5,-2.0264 -2.75,-0.5879 -7.475,-1.4769 -10.5,-1.9756 -9.6335,-1.5879 -16.3589,-2.8366 -21.5,-3.992 -2.75,-0.618 -7.925,-1.5261 -11.5,-2.018 -3.575,-0.4919 -9.425,-1.3853 -13,-1.9853 -3.575,-0.6 -10.775,-1.5208 -16,-2.0462 -22.4486,-2.2573 -27.855,-2.8815 -34,-3.9255 -16.6673,-2.8319 -39.9521,-4.8635 -70,-6.1076 -46.0738,-1.9077 -155.8118,-0.7074 -164,1.7937 -7.7417,2.3648 -13.2324,4.5085 -16.7737,6.5489 -15.4171,8.8832 -33.1083,29.6332 -46.2595,54.2576 -2.35,4.4 -5.5579,9.9411 -7.1288,12.3135 -2.7102,4.0932 -12.838,24.221 -12.838,25.5141 0,0.3349 -1.7091,4.1106 -3.798,8.3906 -6.1981,12.6992 -11.9404,27.5722 -19.7994,51.2818 -2.4611,7.425 -4.879,14.4 -5.3731,15.5 -2.4339,5.4192 -9.9856,30.3756 -12.8602,42.5 -1.8671,7.8752 -3.2216,14.8984 -4.68,24.2675 -1.0702,6.8748 6.2022,33.8047 12.7307,47.1426 4.5986,9.395 6.3679,12.0473 13.6498,20.4624 4.3853,5.0676 7.0115,7.064 12.8265,9.75 4.0217,1.8576 7.5219,3.3775 7.7783,3.3775 0.2564,0 2.842,1.0746 5.7458,2.388 12.285,5.5567 14.7081,6.6142 19.8602,8.668 16.6863,6.652 46.086,15.1227 69.4194,20.0014 4.7441,0.992 7.4844,1.5453 19.75,3.9882 7.3874,1.4714 19.8796,3.4954 36.75,5.9544 3.575,0.5211 9.425,1.3813 13,1.9115 6.8372,1.0142 17.1226,2.5222 28,4.1053 3.575,0.5203 9.875,1.4374 14,2.038 4.125,0.6005 15.0017,1.3964 24.1703,1.7685 9.1687,0.3722 17.0117,1.0197 17.4289,1.4389 1.2987,1.305 151.9868,0.1955 159.4008,-1.1736 z"
       id="path1" />
    <circle
       id="path15"
       style="fill:#000000;stroke:#b3111a"
       cx="1248.0526"
       cy="611.64099"
       r="0.071077183" />
    <circle
       id="path16"
       style="fill:#000000;stroke:#b3111a"
       cx="958.83423"
       cy="985.02301"
       r="0.071077183" />
    <path
       style="fill:#000000;fill-opacity:1;stroke:#b3111a;stroke-width:1.12948"
       d="m 1073.4371,1044.3755 c -1.264,-0.5123 -2.986,-1.7603 -3.8267,-2.7733 -1.2999,-1.5663 -1.2343,-2.1668 0.4387,-4.0155 1.082,-1.1955 3.5664,-2.4885 5.5209,-2.8731 9.248,-1.8201 12.259,-4.7661 18.4637,-18.0651 2.8912,-6.197 3.1603,-7.8883 3.1448,-19.7659 -0.028,-21.2564 -4.517,-27.2941 -19.0174,-25.5767 -6.6826,0.7914 -19.5574,6.7266 -34.6559,15.9761 -43.403,26.5889 -46.05767,27.8648 -57.84767,27.8021 -5.3374,-0.028 -15.9467,-2.9786 -21.60918,-6.0091 -4.6996,-2.5151 -12.4192,-10.7624 -14.4073,-15.3921 -3.0483,-7.0984 -2.6731,-12.8693 1.3707,-21.0834 7.1843,-14.5934 22.76728,-29.0455 39.50548,-36.6386 6.2333,-2.8277 12.97197,-3.0651 13.95947,-0.4918 1.0896,2.8393 -1.0773,4.596 -12.33227,9.9979 -17.461,8.3804 -30.88798,24.1747 -29.64528,34.8721 0.6339,5.456 5.85638,14.8505 9.90208,17.8122 1.5457,1.1316 5.6971,2.7967 9.2254,3.7003 13.2045,3.3816 26.83837,-2.0311 45.54107,-18.0798 12.7197,-10.9149 20.5184,-16.2439 29.792,-20.3578 28.2962,-12.5524 47.1176,-4.8208 51.4506,21.1352 1.9302,11.562 -4.6134,35.1166 -13.3672,48.1174 -7.5775,11.2539 -14.0607,14.7673 -21.606,11.7089 z"
       id="path17" />
    <path
       style="fill:#000000;fill-opacity:1;stroke:#b3111a;stroke-width:1.12948"
       d="m 1070.998,1042.6265 -3.1691,-2.8237 3.1691,-2.8237 c 1.743,-1.553 4.1825,-2.8237 5.4211,-2.8237 6.421,0 12.8003,-6.5644 17.4144,-17.9197 2.3593,-5.8063 2.829,-8.8629 2.8897,-18.806 0.1076,-17.6192 -2.8928,-24.5253 -11.2701,-25.9406 -9.6818,-1.6357 -21.6394,3.5969 -55.4617,24.2699 -23.9327,14.6282 -30.36077,17.8235 -38.41947,19.0974 -10.9397,1.7293 -25.58178,-3.0063 -34.25798,-11.08 -10.3421,-9.6239 -12.3606,-19.4303 -6.4385,-31.2796 7.0521,-14.1102 21.04458,-27.2809 38.13478,-35.8951 6.6926,-3.3734 14.67357,-4.0134 15.72967,-1.2614 1.0273,2.6773 -1.4205,4.737 -12.31987,10.3663 -5.7472,2.9683 -13.0325,7.9174 -16.8292,11.4325 -13.16928,12.1925 -15.75088,21.3955 -9.27288,33.0575 4.70128,8.4636 11.17198,11.771 23.01218,11.7627 13.30067,-0.01 19.41707,-3.333 45.68087,-24.822 4.935,-4.0378 13.0672,-9.3606 18.0716,-11.8283 29.0554,-14.3275 48.2114,-9.0538 54.5229,15.0102 1.6607,6.3317 1.7489,8.6286 0.6272,16.3245 -2.8171,19.3282 -13.1018,40.843 -22.2173,46.4766 -5.2166,3.224 -11.0606,3.0319 -15.0174,-0.4938 z"
       id="path18" />
    <path
       style="fill:#b21019;fill-opacity:0.992157;stroke:#b3111a;stroke-width:1.12948"
       d="m 1071.4997,1043.6747 c -5.9601,-3.2334 -3.1784,-7.5879 6.6722,-10.4445 5.6727,-1.645 10.8668,-7.2129 14.8853,-15.9564 2.5175,-5.4778 2.8908,-7.8472 2.9458,-18.697 0.077,-15.2949 -0.8203,-19.7764 -4.7489,-23.7049 -2.8231,-2.8231 -3.6433,-3.0299 -10.4873,-2.6431 -9.5178,0.5378 -20.4827,5.7391 -51.6535,24.5025 -31.65437,19.0544 -37.73707,21.1594 -51.20537,17.7203 -9.93768,-2.5376 -15.96938,-5.6524 -21.64058,-11.1753 -6.0352,-5.8774 -9.1322,-12.2496 -9.1456,-18.818 -0.014,-6.6476 6.3701,-18.916 14.5407,-27.9448 5.6923,-6.2902 18.26818,-15.8519 26.13718,-19.8726 8.8749,-4.5347 17.84647,-4.237 17.14027,0.5688 -0.2631,1.7909 -3.0912,3.9418 -10.36817,7.886 -13.1731,7.1398 -19.9876,12.4569 -25.4986,19.8954 -7.12178,9.6128 -7.43828,16.7951 -1.17518,26.671 4.52938,7.142 10.13148,9.6808 21.43218,9.7127 7.0233,0.02 9.6293,-0.5289 15.24797,-3.2109 6.9644,-3.3244 16.4888,-9.973 28.0278,-19.565 15.5735,-12.9459 31.0003,-20.1514 44.9577,-20.9988 10.3388,-0.6276 15.5261,0.8574 21.3386,6.1086 12.3783,11.183 13.1271,35.4076 1.8389,59.4923 -8.9786,19.1569 -18.8843,26.0925 -29.2414,20.4737 z"
       id="path19" />
    <path
       style="fill:#b21019;fill-opacity:0.992157;stroke:#b3111a;stroke-width:1.12948"
       d="m 1157.5284,959.1734 c -0.2588,-0.24 -7.5863,-1.0354 -16.2833,-1.7677 -19.3362,-1.628 -27.6613,-3.4479 -38.1979,-8.3499 -10.6883,-4.9726 -18.8166,-11.5902 -24.4802,-19.9303 -2.9632,-4.3635 -5.9535,-7.3547 -8.3556,-8.3584 -3.6159,-1.5108 -8.5946,-7.0817 -8.5946,-9.617 0,-0.7357 2.3431,-1.2374 5.7791,-1.2374 5.4551,0 5.7385,-0.1425 5.0538,-2.5414 -2.2671,-7.9424 -2.0573,-12.8329 0.7902,-18.4152 3.7216,-7.2959 8.5058,-11.72437 13.5508,-12.54305 9.9978,-1.62242 17.2701,2.80996 22.8699,13.93905 3.7983,7.5487 4.19,15.0771 1.1532,22.1648 -1.5531,3.6249 -2.2336,4.1812 -4.3416,3.5496 -5.2807,-1.582 -5.8841,-3.1602 -4.2846,-11.2071 1.82,-9.1563 1.0374,-12.4742 -3.6107,-15.3082 -7.7128,-4.7027 -12.9991,-2.0335 -16.0025,8.0799 -3.7633,12.6725 -1.7152,15.26 16.88,21.3266 4.3485,1.4186 12.989,4.7286 19.2011,7.3554 6.2122,2.6268 12.5655,5.1249 14.1185,5.5514 3.0034,0.8247 7.6533,2.9261 24.8915,11.249 5.9251,2.8608 11.53,5.2015 12.4553,5.2015 3.4194,0 6.8459,3.4863 6.485,6.5983 -0.2658,2.2924 -1.1387,3.1595 -3.7353,3.7104 -3.8657,0.8201 -14.6343,1.2059 -15.3421,0.5497 z m -16.8352,-11.4232 c -0.8955,-1.8324 -22.315,-10.2038 -38.9799,-15.2345 -14.4694,-4.3679 -15.9495,-3.9763 -8.7762,2.322 5.0786,4.459 18.1418,10.6589 27.0961,12.86 7.3264,1.8009 21.532,1.837 20.66,0.053 z"
       id="path20" />
    <path
       style="fill:#b21019;fill-opacity:0.992157;stroke:#b3111a;stroke-width:0.574415"
       d="m 1099.5061,862.7286 c -5.7607,-1.36848 -12.5141,-5.56688 -17.2155,-10.70244 -6.8015,-7.4296 -8.4235,-15.20365 -4.7352,-22.69555 1.4758,-2.99789 2.2613,-3.94653 3.6758,-4.43963 2.6355,-0.91876 5.3489,-0.76653 6.7642,0.37948 l 1.2431,1.00659 -1.1417,2.58351 c -3.5511,8.03635 -1.0373,16.48581 6.4309,21.61494 3.4161,2.3462 8.3067,3.95899 10.4068,3.4319 2.1087,-0.52925 3.2445,-3.2592 2.5126,-6.03937 -1.3856,-5.26389 -9.1177,-18.92939 -17.41,-30.77015 -5.5212,-7.88386 -6.604,-10.00156 -6.604,-12.91565 v -2.32054 l 2.4412,0.0103 c 1.3427,0.006 4.8969,0.38876 7.8982,0.85132 3.0014,0.46256 6.3617,0.84169 7.4674,0.84252 3.5066,0.003 3.7337,-0.4231 3.7337,-6.99686 0,-5.5753 0.068,-5.91814 1.2133,-6.08155 2.0663,-0.29496 4.595,2.52747 7.4969,8.36786 2.4464,4.92367 2.7781,6.02872 2.7781,9.25494 0,5.03151 -0.9028,5.67004 -9.5159,6.73012 -7.5036,0.92353 -8.5781,1.19545 -8.5781,2.17085 0,0.39145 1.2924,2.54616 2.872,4.78826 1.5797,2.24209 2.8721,4.30741 2.8721,4.58959 0,0.28218 1.4141,2.18121 3.1425,4.22007 4.2566,5.02129 5.8565,8.14772 7.5149,14.68506 1.571,6.19303 1.8069,11.93591 0.6083,14.80464 -0.654,1.56531 -1.2665,2.02576 -3.4136,2.56642 -2.9675,0.74722 -9.4406,0.78015 -12.458,0.0634 z"
       id="path21" />
    <path
       style="fill:#b21019;fill-opacity:0.992157;stroke:#b3111a;stroke-width:0.574415"
       d="m 1082.9139,781.46603 c -2.8699,-0.89479 -3.595,-1.72224 -3.1305,-3.57277 0.2535,-1.01008 0,-1.41151 -1.1728,-1.8574 -4.2921,-1.63188 0.5552,-3.82479 10.2277,-4.62695 3.4468,-0.28585 6.508,-0.76079 6.8026,-1.05543 0.9492,-0.94913 -0.535,-2.72091 -8.048,-9.60767 -11.2785,-10.33844 -13.9249,-13.6881 -13.9249,-17.62568 0,-2.25405 1.5011,-3.84808 6.3186,-6.71001 4.5443,-2.69962 6.3185,-4.52969 6.3185,-6.51731 0,-0.92141 -0.6665,-3.81308 -1.4811,-6.42594 -2.5536,-8.19023 -1.2004,-10.35886 3.6392,-5.83201 3.1042,2.90365 8.5476,11.59269 9.097,14.5211 0.1978,1.05446 0.1954,2.57168 -0.01,3.37162 -0.565,2.25122 -4.494,5.78598 -8.8947,8.00212 -2.196,1.10589 -4.1424,2.25292 -4.3254,2.54896 -0.4873,0.78847 7.4398,7.91316 16.34,14.68599 4.27,3.24942 8.7289,6.9764 9.9086,8.28219 1.907,2.11078 2.144,2.70851 2.1361,5.38818 0,1.65772 -0.2077,3.32711 -0.4509,3.70976 -2.001,3.14861 -22.4776,5.46538 -29.3546,3.32125 z"
       id="path22" />
    <path
       style="fill:#b21019;fill-opacity:0.992157;stroke:#b3111a;stroke-width:0.574415"
       d="m 1053.1226,712.47239 c -3.5748,-3.73082 -3.2932,-5.11082 1.5272,-7.48323 2.0191,-0.99375 6.2382,-2.49666 9.3758,-3.33979 3.1375,-0.84313 8.2061,-2.57141 11.2636,-3.84061 8.1354,-3.37714 8.5462,-3.46668 11.4236,-2.48977 1.3775,0.46768 3.3617,0.85032 4.4092,0.85032 2.3413,0 5.5226,1.05773 5.5226,1.83618 0,1.36388 -4.1859,4.26536 -10.6103,7.35463 -8.6332,4.1514 -15.0139,6.21322 -29.2879,9.46383 -0.7799,0.17761 -1.8918,-0.54393 -3.6238,-2.35156 z"
       id="path23" />
    <path
       style="fill:#b21019;fill-opacity:0.992157;stroke:#b3111a;stroke-width:0.271833"
       d="m 1022.3284,708.74935 c -0.8158,-0.47591 -1.639,-3.18992 -1.6463,-5.42752 -0.014,-4.43898 2.8229,-7.57731 6.2664,-6.9313 2.3983,0.44993 6.031,5.72113 6.031,8.75132 0,1.89031 -0.4392,2.14001 -2.4557,1.3961 -0.8172,-0.3015 -1.9389,-0.60977 -2.4926,-0.68505 -0.9131,-0.12415 -1.1406,-0.0114 -2.4465,1.21222 -1.2262,1.14897 -2.3912,1.99032 -2.7131,1.95932 -0.047,-0.005 -0.2917,-0.12834 -0.5432,-0.27509 z"
       id="path24" />
    <path
       style="fill:#b21019;fill-opacity:0.992157;stroke:#b3111a;stroke-width:0.271833"
       d="m 1080.6437,682.38182 c -2.7623,-0.5465 -4.3567,-2.10409 -3.497,-3.41625 0.5956,-0.90895 1.4064,-1.37792 3.1803,-1.83949 2.0596,-0.53589 2.4196,-0.75349 3.7532,-2.26853 3.4901,-3.96498 5.9842,-12.97957 5.9842,-21.62928 0,-4.21052 -0.2903,-4.80255 -2.3588,-4.81013 -2.8744,-0.0105 -9.7854,5.10815 -15.6773,11.61165 -1.3231,1.46047 -3.8767,4.53192 -5.6747,6.82544 -6.9105,8.81516 -10.1375,10.78995 -15.4372,9.44674 -6.9557,-1.76294 -9.7262,-6.17168 -9.4609,-15.05562 0.1244,-4.16959 0.5271,-5.25615 2.8507,-7.69218 4.1017,-4.3002 10.8791,-7.63232 12.4101,-6.10138 0.649,0.64899 0.3604,1.07196 -3.3367,4.88977 -3.6022,3.71992 -4.7304,5.24491 -5.5065,7.44277 -1.078,3.05314 -0.1822,7.54722 1.7454,8.75649 1.3525,0.84848 3.8918,0.64572 5.4163,-0.43249 1.403,-0.99219 4.171,-4.80884 6.9578,-9.59364 4.5529,-7.8171 7.5703,-11.64254 12.2995,-15.59314 4.0557,-3.38799 7.2502,-4.63502 13.0177,-5.08178 3.2414,-0.25108 6.6567,-0.004 8.8799,0.64224 2.636,0.76631 5.4599,3.9949 8.1185,9.2821 2.1996,4.37439 2.2132,5.37344 0.1568,11.52218 -1.3248,3.9609 -2.4906,6.52353 -3.4877,7.66609 -1.0744,1.23108 -2.489,3.4945 -3.7035,5.92555 -1.2895,2.58111 -2.8884,4.98095 -4.2873,6.43508 -2.3854,2.47949 -8.1165,3.90396 -12.3428,3.06781 z"
       id="path25" />
    <path
       style="fill:#b21019;fill-opacity:0.992157;stroke:#b3111a;stroke-width:0.271833"
       d="m 1085.4433,626.75737 c -8.2753,-1.31229 -28.7274,-7.54802 -39.949,-12.18023 -1.7136,-0.70735 -5.1998,-1.81323 -7.7472,-2.45751 -11.9849,-3.03116 -43.29067,-14.34659 -53.01787,-19.16321 -8.6045,-4.2607 -11.4699,-6.79226 -7.6878,-6.79212 5.0677,1.9e-4 24.87667,4.80076 40.98727,9.93299 5.5244,1.75989 12.4111,3.84539 19.6153,5.94016 3.3877,0.98506 8.6477,2.66144 11.6888,3.72528 11.1225,3.89092 18.4257,5.8381 23.037,6.14204 l 2.5569,0.16854 -0.1662,-0.83084 c -0.091,-0.45696 -0.7675,-1.752 -1.5024,-2.87785 -2.3734,-3.63568 -4.8102,-10.48 -5.4991,-15.44581 -0.2975,-2.14417 -0.2756,-2.4041 0.3964,-4.71318 0.9642,-3.31262 1.7345,-4.77502 2.8525,-5.41505 1.8595,-1.06446 12.5348,-0.82674 17.2754,0.3847 2.8357,0.72466 5.987,0.88163 11.1593,0.55588 5.3941,-0.33971 10.1862,-0.92295 13.5068,-1.64385 3.5619,-0.7733 4.4446,-1.35611 5.1474,-3.39847 0.5428,-1.57742 0.4147,-7.47815 -0.2858,-13.16765 -0.3211,-2.60745 -0.5083,-5.08453 -0.416,-5.50461 0.2388,-1.08759 1.4179,-1.04366 2.722,0.10142 2.7605,2.42373 9.5264,14.79539 11.8163,21.60662 1.5263,4.53989 1.6161,6.54139 0.4011,8.94354 -0.7343,1.45176 -0.9914,1.70052 -2.5824,2.49791 -2.1914,1.09834 -4.5202,1.59997 -9.2423,1.99079 -4.1005,0.33937 -8.1145,0.2018 -16.8536,-0.57762 -13.9276,-1.24216 -24.3159,-1.69141 -25.2623,-1.0925 -0.3271,0.20696 -0.2639,0.54432 0.3936,2.10254 1.0827,2.56573 5.837,11.89635 9.4384,18.5235 1.6506,3.03728 3.287,6.21773 3.6366,7.06766 0.6648,1.61624 0.834,3.54514 0.3846,4.38475 -0.5852,1.09343 -3.8353,1.66292 -6.8037,1.19218 z"
       id="path26" />
    <path
       style="fill:#b21019;fill-opacity:0.992157;stroke:#b3111a;stroke-width:0.284704"
       d="m 1191.1735,901.1431 c -3.9176,-0.7931 -14.4556,-3.4816 -20.5656,-5.247 -9.1177,-2.6343 -15.6608,-5.2114 -17.0013,-6.6963 -0.5188,-0.5746 -0.5255,-0.6659 -0.1015,-1.3837 0.6212,-1.052 2.9016,-2.7611 4.2048,-3.1516 0.5904,-0.1769 1.7632,-0.3212 2.6063,-0.3207 1.5548,0 11.634,1.3733 15.7283,2.1415 1.2308,0.231 2.6255,0.4199 3.0992,0.4199 h 0.8614 l -0.1816,-1.3523 c -0.266,-1.9811 -1.5832,-4.4077 -4.0897,-7.5348 -2.7197,-3.39293 -5.2022,-7.32585 -8.0482,-12.75034 -1.1912,-2.27051 -2.6227,-4.76879 -3.1811,-5.55172 -1.6614,-2.32946 -2.083,-3.99936 -2.0846,-8.2564 0,-4.67816 0.4426,-6.76448 1.7112,-8.0331 0.8619,-0.86195 1.0764,-0.93474 2.7429,-0.93086 2.3368,0.005 4.263,0.46775 11.2031,2.68885 6.3024,2.01698 7.7339,2.42768 8.4699,2.43002 0.764,0.002 0.6325,-1.29877 -0.4821,-4.77246 -1.3952,-4.34837 -1.9642,-7.45902 -1.7955,-9.81608 0.4462,-6.23663 4.6635,-1.59827 9.1239,10.03487 2.0127,5.24918 3.5861,10.44363 3.8088,12.57418 l 0.1736,1.661 -2.5317,-0.005 c -1.3924,-0.003 -4.9659,-0.32368 -7.9411,-0.71352 -10.0553,-1.31758 -10.8855,-1.38747 -12.1128,-1.01976 -1.5656,0.46908 -2.1614,1.43344 -1.7447,2.82424 0.3825,1.27645 3.7565,5.77458 12.3189,16.42302 7.565,9.40806 9.3268,11.71306 11.4913,15.03356 1.889,2.8981 3.8554,6.9556 3.8554,7.9555 0,0.983 -1.4546,2.8761 -2.6434,3.4402 -1.283,0.6088 -3.5857,0.5783 -6.8941,-0.091 z"
       id="path27" />
    <path
       style="fill:#b21019;fill-opacity:0.992157;stroke:#b3111a;stroke-width:0.284704"
       d="m 1186.8072,819.13017 c -1.9993,-0.35725 -5.3375,-1.48908 -7.9448,-2.6937 -7.7563,-3.58366 -11.5433,-8.79989 -11.5714,-15.93877 -0.01,-1.78276 0.122,-2.52506 0.5935,-3.41644 0.8901,-1.68275 2.3388,-3.18865 3.7868,-3.93636 0.8315,-0.42936 1.3132,-0.87997 1.3725,-1.28381 0.05,-0.34224 -0.2629,-1.80598 -0.6959,-3.25276 -0.9733,-3.25188 -1.0872,-6.49049 -0.3002,-8.53017 0.6984,-1.81007 2.9059,-3.78494 4.8684,-4.35547 0.8134,-0.23645 2.9447,-0.54294 4.7364,-0.68109 3.8286,-0.29523 4.4126,-0.48859 6.0592,-2.00642 0.6822,-0.62876 1.7179,-1.34279 2.3018,-1.58672 0.9801,-0.40952 1.1403,-0.40433 2.0892,0.0677 1.2919,0.64257 2.0226,2.03781 2.3888,4.56142 0.562,3.87306 1.6187,7.69688 3.0113,10.89673 2.8168,6.47218 6.34,18.847 6.34,22.26832 0,3.77522 -3.4575,7.64489 -8.3353,9.329 -2.0485,0.70724 -6.3299,0.98211 -8.7003,0.55856 z m 3.6252,-10.74743 c 1.7066,-0.65812 2.2836,-1.5433 2.6285,-4.0324 0.4891,-3.52906 -0.3436,-8.00293 -1.7516,-9.41092 -0.7098,-0.70974 -2.0921,-0.7257 -3.0813,-0.0356 -0.4156,0.29 -2.1009,1.26782 -3.7451,2.17292 -2.6269,1.44611 -5.0897,3.13481 -7.7779,5.33319 l -0.8026,0.65642 1.7991,1.5857 c 2.4435,2.15362 3.8761,3.05796 5.8362,3.68429 2.1029,0.67194 5.2182,0.69289 6.8947,0.0464 z m -8.5231,-20.68303 c 0.1905,-0.22956 0.2584,-0.68005 0.1527,-1.01302 -0.2783,-0.87695 -1.6711,-0.67969 -1.8033,0.2554 -0.1482,1.04751 0.9802,1.5654 1.6506,0.75762 z"
       id="path28" />
    <path
       style="fill:#b21019;fill-opacity:0.992157;stroke:#b3111a;stroke-width:0.284704"
       d="m 1214.5192,777.13942 c -4.1673,-1.04355 -9.9564,-4.62318 -12.704,-7.85536 -2.6024,-3.0614 -5.8107,-8.41252 -7.3529,-12.26394 -1.195,-2.98432 -1.1626,-4.40058 0.1608,-7.04607 1.432,-2.86238 3.566,-4.92776 6.4895,-6.28084 3.117,-1.4426 3.3504,-1.74696 3.5826,-4.67059 0.237,-2.98323 0.6651,-3.67219 2.9435,-4.73679 1.7504,-0.81788 5.7668,-1.96195 6.9168,-1.97025 0.9853,-0.007 1.2521,-0.62974 1.9774,-4.61472 0.9445,-5.18841 1.2478,-6.43934 1.9046,-7.85447 0.9627,-2.07426 1.9765,-2.21165 2.9874,-0.40483 1.3338,2.38404 2.3939,6.8057 3.0743,12.82322 0.6866,6.07301 1.3246,8.05798 4.0272,12.53027 2.5495,4.21881 4.6783,9.78582 5.8022,15.17324 0.7247,3.47362 0.8688,8.54439 0.2981,10.49319 -0.7015,2.39612 -4.2592,4.88293 -9.0041,6.29402 -2.667,0.79314 -8.644,0.9998 -11.1034,0.38392 z m 4.1697,-9.90335 c 2.1978,-0.38725 2.8163,-0.85622 3.6329,-2.75441 1.0569,-2.45689 1.5391,-5.09418 1.5613,-8.54006 0.017,-2.641 -0.081,-3.48113 -0.506,-4.34482 -0.9599,-1.9503 -2.249,-1.78353 -6.6869,0.86506 -3.2628,1.94726 -4.5635,2.30349 -7.7477,2.12193 -2.4092,-0.13736 -2.4604,-0.12643 -3.4169,0.72879 -0.9006,0.80523 -0.9697,0.98867 -0.9527,2.52804 0.044,3.98663 3.9788,8.1737 8.8075,9.37212 1.7782,0.44133 2.9081,0.4463 5.3085,0.0234 z"
       id="path29" />
    <path
       style="fill:#b21019;fill-opacity:0.992157;stroke:#b3111a;stroke-width:0.284704"
       d="m 1250.8479,736.40508 c -1.3489,-0.59784 -3.5201,-2.09752 -10.4207,-7.19804 -12.5505,-9.27648 -28.841,-19.78022 -37.0786,-23.90728 -7.7545,-3.88506 -26.615,-15.75069 -30.2951,-19.05936 -1.0627,-0.95544 -1.3822,-1.43781 -1.3822,-2.08648 0,-0.72638 0.1784,-0.92266 1.2827,-1.41116 2.1012,-0.92945 5.4568,-1.46068 7.0579,-1.11733 1.64,0.35172 2.1272,0.59345 6.891,3.41891 2.0357,1.20734 8.5696,4.92128 14.5199,8.2532 5.9503,3.33192 12.2949,6.92679 14.0992,7.98859 3.9858,2.34575 4.4214,2.46816 4.3673,1.22745 -0.1036,-2.37616 -6.8051,-13.52346 -13.1513,-21.87607 -1.4277,-1.87904 -3.9772,-5.22726 -5.6656,-7.44049 -6.4569,-8.46392 -9.8147,-15.7201 -8.6149,-18.61672 1.1208,-2.70579 4.3195,-0.18713 9.229,7.26678 1.1344,1.72246 3.263,4.98943 4.73,7.25994 5.5824,8.63981 12.7289,18.45991 15.3477,21.08936 1.7636,1.77068 2.0263,1.88638 8.556,3.76761 2.4271,0.69925 7.808,2.43405 11.9576,3.8551 10.5739,3.62114 12.1712,3.86676 12.7779,1.96487 0.1623,-0.50898 0.5001,-2.14253 0.7505,-3.6301 0.5661,-3.36214 1.396,-6.67443 2.0699,-8.26116 l 0.5138,-1.20984 1.7681,2.04924 c 3.2482,3.76465 6.0147,8.37873 10.3392,17.24403 2.9879,6.12534 4.2894,9.78972 3.7717,10.61892 -0.4947,0.79214 -1.572,1.18762 -3.2474,1.19208 -2.0959,0.006 -4.2443,-0.58226 -8.2227,-2.24986 -1.8131,-0.75997 -3.7909,-1.46896 -4.3953,-1.57552 -2.4363,-0.42962 -14.7086,-6.21983 -20.8233,-9.82468 -1.8791,-1.10776 -3.6087,-1.97862 -3.8435,-1.93524 -0.3138,0.0579 -0.4495,0.54634 -0.5115,1.84086 -0.1347,2.81367 0.5099,3.84822 9.3855,15.06302 9.0977,11.4954 11.4915,15.06695 11.2871,16.84091 -0.077,0.66892 -0.2287,0.78515 -1.086,0.83236 -0.5481,0.0302 -1.4318,-0.13808 -1.9639,-0.3739 z"
       id="path30" />
  </g>
</svg>
